<svg xmlns="http://www.w3.org/2000/svg" xmlns:xlink="http://www.w3.org/1999/xlink" width="1080" zoomAndPan="magnify" viewBox="0 0 810 809.999993" height="1080" preserveAspectRatio="xMidYMid meet" version="1.0"><defs><g/><clipPath id="6e219e4ab9"><path d="M 43.234375 40.742188 L 766.957031 40.742188 L 766.957031 769.222656 L 43.234375 769.222656 Z M 43.234375 40.742188 " clip-rule="nonzero"/></clipPath><clipPath id="02e1625f44"><path d="M 292.003906 335 L 517.753906 335 L 517.753906 637.097656 L 292.003906 637.097656 Z M 292.003906 335 " clip-rule="nonzero"/></clipPath><clipPath id="f56bcf857a"><path d="M 347 313.097656 L 463 313.097656 L 463 373 L 347 373 Z M 347 313.097656 " clip-rule="nonzero"/></clipPath></defs><g clip-path="url(#6e219e4ab9)"><path fill="#e7e8e6" d="M 692.265625 199.035156 L 692.234375 197.4375 C 692.933594 198.460938 693.574219 199.527344 694.207031 200.601562 C 693.558594 200.078125 692.929688 199.546875 692.265625 199.035156 Z M 351.839844 759.300781 C 350.335938 758.894531 348.84375 758.414062 347.351562 757.972656 C 349.074219 758.144531 350.789062 758.394531 352.523438 758.496094 Z M 142.265625 191.757812 C 143.347656 189.863281 144.496094 187.964844 145.859375 186.074219 C 146.90625 184.625 148.222656 183.1875 149.605469 181.765625 C 150.304688 181.058594 151.011719 180.34375 151.722656 179.628906 C 152.035156 179.332031 152.339844 179.046875 152.648438 178.753906 C 151.617188 180.488281 150.761719 182.28125 149.808594 184.050781 C 148.75 186.050781 147.617188 188.0625 146.238281 190.148438 C 145.527344 191.226562 144.328125 192.414062 143.050781 193.683594 C 141.804688 194.976562 140.433594 196.3125 139.261719 197.589844 C 140.300781 195.652344 141.207031 193.675781 142.265625 191.757812 Z M 323.894531 98.324219 C 309.882812 102.34375 296.285156 107.335938 283.179688 113.230469 C 294.324219 104.113281 308.3125 98.871094 323.894531 98.324219 Z M 360.503906 85.566406 C 363.601562 84.796875 366.78125 84.136719 370.042969 83.476562 C 373.304688 82.828125 376.652344 82.164062 380.132812 81.855469 C 383.609375 81.476562 387.1875 81.15625 390.886719 80.910156 C 394.589844 80.730469 398.421875 80.828125 402.378906 80.910156 C 408.382812 80.960938 413.25 81.625 416.964844 82.171875 C 420.675781 82.769531 423.246094 83.371094 424.660156 84.226562 C 426.078125 85.078125 426.355469 85.984375 425.507812 86.996094 C 425.496094 87.011719 425.46875 87.03125 425.457031 87.050781 C 419.6875 86.726562 413.882812 86.546875 408.035156 86.546875 C 380.558594 86.546875 353.941406 90.203125 328.617188 97.027344 C 338.859375 92.515625 349.1875 88.714844 360.503906 85.566406 Z M 445.609375 77.914062 C 447.082031 78.089844 448.558594 78.503906 450.027344 78.820312 C 449.460938 79.046875 448.910156 79.511719 448.332031 79.449219 C 446.875 79.277344 445.402344 78.867188 443.929688 78.554688 C 444.488281 78.324219 445.046875 77.847656 445.609375 77.914062 Z M 499.835938 97.488281 C 509.191406 100.867188 511.808594 103.011719 511.664062 104.636719 C 496.214844 99.050781 480.183594 94.679688 463.6875 91.632812 C 471.488281 89.75 487.363281 93.277344 499.835938 97.488281 Z M 476.738281 73.238281 L 475.5625 74.101562 L 473.460938 73.230469 L 471.332031 72.460938 C 473.148438 72.632812 474.941406 72.9375 476.738281 73.238281 Z M 515.359375 84.363281 C 516.550781 84.867188 517.074219 85.613281 517.882812 86.246094 L 510.539062 84.316406 L 510.4375 83.015625 C 512.101562 83.453125 514.03125 83.796875 515.359375 84.363281 Z M 604.304688 108.652344 L 611.242188 113.308594 C 610.265625 113 608.910156 112.789062 608.382812 112.371094 C 606.734375 111.078125 605.125 109.773438 603.511719 108.460938 C 602.726562 107.820312 601.9375 107.171875 601.140625 106.53125 Z M 654.332031 194.4375 L 655.722656 197.046875 L 653.414062 194.535156 Z M 656.511719 179.199219 C 657.613281 180.167969 658.730469 181.199219 659.855469 182.253906 C 660.992188 183.300781 662.023438 184.457031 663.113281 185.554688 L 663.207031 187.5 L 660.015625 184.230469 C 658.945312 183.148438 657.796875 182.132812 656.695312 181.082031 C 656.621094 180.421875 656.339844 179.042969 656.511719 179.199219 Z M 650.339844 619.460938 C 650.96875 618.722656 652.703125 617.929688 653.933594 617.15625 L 647.578125 625.476562 C 646.339844 626.214844 645.15625 626.984375 643.90625 627.679688 C 646.0625 624.96875 648.007812 622.203125 650.339844 619.460938 Z M 645.152344 658.222656 L 647.730469 658.871094 C 644.558594 661.726562 641.386719 664.59375 638.15625 667.386719 C 638.023438 667.5 637.394531 667.070312 637 666.890625 Z M 59.140625 366.96875 L 58.917969 364.609375 L 59.496094 362.328125 Z M 766.863281 317.390625 C 766.796875 316.574219 766.710938 315.777344 766.625 314.988281 C 766.441406 313.414062 766.230469 311.882812 765.992188 310.386719 C 765.515625 307.398438 764.925781 304.570312 764.25 301.867188 C 763.625 299.152344 762.691406 296.621094 761.792969 294.152344 C 760.878906 291.691406 759.917969 289.316406 758.925781 286.992188 C 757.035156 282.316406 754.660156 277.957031 752.515625 273.40625 C 751.433594 271.140625 750.371094 268.828125 749.359375 266.4375 C 748.269531 264.070312 747.179688 261.640625 746.175781 259.066406 C 744.96875 256 743.929688 252.78125 742.980469 249.566406 C 741.90625 246.40625 740.917969 243.253906 739.96875 240.277344 C 738.84375 236.847656 737.84375 233.933594 736.6875 231.527344 C 735.523438 229.121094 734.382812 227.136719 733.230469 225.429688 C 730.902344 222.03125 728.605469 219.71875 725.800781 217.46875 C 723.585938 215.75 715.101562 202.375 713.496094 199.039062 C 709.246094 188.199219 703.292969 180.394531 697.234375 173.472656 C 694.089844 170.097656 690.898438 166.925781 687.753906 163.714844 C 686.210938 162.082031 684.558594 160.539062 682.9375 158.929688 C 681.320312 157.324219 679.722656 155.671875 678.140625 153.941406 C 673.519531 148.703125 669.183594 144.84375 665.644531 141.667969 C 663.847656 140.109375 662.234375 138.726562 660.703125 137.597656 C 659.152344 136.492188 657.738281 135.578125 656.453125 134.835938 C 651.3125 131.882812 648.191406 131.738281 645.898438 133.46875 C 645.066406 134.039062 635.222656 127.199219 629.199219 123.109375 C 624.027344 119.921875 618.847656 116.535156 613.527344 113.304688 C 610.832031 111.75 608.132812 110.1875 605.429688 108.625 C 603.445312 107.480469 601.472656 106.332031 599.460938 105.257812 C 599.148438 105.023438 598.847656 104.785156 598.53125 104.558594 C 593.917969 102.109375 589.414062 99.691406 584.847656 97.386719 C 580.222656 95.191406 575.617188 92.964844 570.984375 90.578125 C 566.34375 88.433594 561.4375 84.992188 556.613281 82.148438 C 558.941406 81.78125 559.960938 80.269531 563.960938 81.34375 C 567.089844 82.1875 570.714844 83.421875 574.488281 84.863281 C 578.195312 86.429688 582.066406 88.167969 585.800781 89.820312 C 600.71875 96.695312 615.691406 104.804688 629.5 113.660156 C 632.066406 115.238281 635.46875 115.816406 634.882812 114.558594 C 633.742188 112.082031 630.605469 107.277344 627.203125 104.597656 C 623.84375 101.851562 620.257812 99.40625 616.738281 96.867188 C 613.203125 94.359375 609.707031 91.785156 606.015625 89.527344 C 602.367188 87.195312 598.714844 84.898438 595.050781 82.644531 C 591.304688 80.539062 587.554688 78.472656 583.804688 76.460938 C 568.707031 68.636719 553.246094 62.324219 537.964844 58.769531 L 535.601562 57.230469 C 535.601562 57.230469 539.367188 59.066406 539.390625 59.074219 C 537.792969 57.433594 536.386719 55.828125 534.503906 54.101562 C 531.789062 51.53125 528.945312 49.601562 526.101562 47.832031 C 523.238281 46.101562 520.324219 44.675781 517.292969 43.539062 C 514.246094 42.449219 511.050781 41.785156 507.703125 41.316406 C 504.34375 40.886719 500.847656 40.628906 497.082031 40.792969 C 491.636719 41.101562 489.59375 41.929688 490.261719 43.355469 C 490.597656 44.074219 491.613281 44.941406 493.222656 45.980469 C 494.027344 46.496094 494.980469 47.0625 496.078125 47.667969 C 497.183594 48.304688 498.398438 49.007812 499.722656 49.769531 C 505.980469 53.34375 510.425781 56.042969 513.0625 58.269531 C 515.695312 60.515625 516.597656 62.027344 515.824219 62.9375 C 515.046875 63.863281 512.613281 64.085938 508.484375 64.039062 C 504.328125 64.074219 498.535156 63.601562 491.074219 63.132812 C 485.84375 62.953125 480.609375 62.78125 475.367188 62.601562 L 459.777344 62.863281 C 459.777344 62.863281 461.082031 62.742188 461.089844 62.738281 C 458.460938 62.589844 455.253906 62.652344 451.972656 62.589844 C 448.691406 62.558594 445.3125 62.53125 442.246094 62.503906 C 436.128906 62.734375 431.363281 63.15625 431.386719 63.863281 C 431.441406 65.441406 433.269531 66.921875 432.5625 67.972656 C 432.214844 68.496094 431.238281 68.914062 429.105469 69.1875 C 428.035156 69.324219 426.683594 69.421875 424.96875 69.480469 C 423.257812 69.585938 421.191406 69.730469 418.703125 69.816406 C 416.484375 69.898438 414.308594 70.011719 412.160156 70.152344 C 410.007812 70.300781 407.886719 70.425781 405.792969 70.757812 C 401.601562 71.335938 397.503906 71.984375 393.445312 72.660156 C 391.414062 72.953125 389.40625 73.472656 387.390625 73.894531 C 385.382812 74.335938 383.371094 74.777344 381.351562 75.21875 C 379.339844 75.652344 377.316406 76.085938 375.289062 76.523438 C 373.253906 77.027344 371.21875 77.535156 369.164062 78.046875 C 367.535156 78.433594 365.765625 78.808594 363.914062 79.160156 C 362.0625 79.523438 360.125 79.796875 358.199219 80.226562 C 354.335938 81 350.417969 81.636719 346.972656 82.007812 L 344.585938 82.265625 L 342.222656 82.636719 L 337.488281 83.371094 C 334.339844 83.882812 331.164062 84.304688 328.027344 84.882812 C 324.894531 85.515625 321.769531 86.152344 318.640625 86.78125 L 313.945312 87.730469 C 312.386719 88.089844 310.847656 88.5 309.300781 88.882812 C 306.195312 89.664062 303.097656 90.441406 300.003906 91.21875 C 298.4375 91.578125 296.925781 92.074219 295.394531 92.527344 L 290.804688 93.910156 L 286.210938 95.300781 C 284.675781 95.757812 283.136719 96.210938 281.640625 96.769531 L 272.585938 99.980469 C 271.113281 100.511719 269.488281 100.808594 268.171875 100.929688 C 266.871094 101.082031 265.851562 101.007812 265.5625 100.675781 C 265.386719 100.476562 266.324219 99.566406 267.699219 98.535156 C 269.097656 97.546875 270.914062 96.40625 272.402344 95.597656 C 285.449219 88.230469 299.492188 82.234375 313.730469 76.839844 C 310.425781 77.308594 307.1875 78.074219 303.914062 78.761719 C 300.632812 79.472656 297.355469 80.1875 294.082031 80.898438 C 290.839844 81.75 287.609375 82.601562 284.390625 83.445312 C 282.777344 83.867188 281.164062 84.289062 279.554688 84.707031 C 277.941406 85.117188 276.390625 85.652344 274.808594 86.113281 C 271.464844 87.125 269.222656 86.910156 266.460938 87.257812 L 266.511719 86.683594 C 266.511719 86.683594 266.234375 87.296875 266.308594 87.277344 C 266.386719 87.265625 266.429688 87.648438 266.429688 87.648438 C 265.386719 88.210938 264.34375 88.777344 263.292969 89.34375 C 262.25 89.933594 261.226562 90.566406 260.1875 91.175781 C 258.109375 92.40625 256.023438 93.640625 253.929688 94.878906 C 251.855469 96.144531 249.710938 97.289062 247.695312 98.648438 C 245.667969 99.980469 243.652344 101.3125 241.640625 102.636719 C 239.65625 103.96875 237.679688 105.296875 235.726562 106.609375 C 233.832031 108.007812 231.988281 109.421875 230.183594 110.8125 C 226.59375 113.632812 223.101562 116.273438 220.132812 119.199219 C 217.132812 122.035156 214.148438 124.757812 211.183594 127.371094 C 208.316406 130.125 205.46875 132.777344 202.613281 135.328125 C 199.710938 137.832031 197 140.460938 194.230469 142.960938 C 192.847656 144.207031 191.460938 145.4375 190.070312 146.644531 L 187.976562 148.441406 L 185.949219 150.289062 C 183.25 152.746094 180.523438 155.125 177.761719 157.4375 C 177.074219 158.019531 176.371094 158.582031 175.691406 159.167969 L 173.683594 160.953125 C 172.339844 162.132812 170.980469 163.296875 169.613281 164.449219 C 164.261719 168.789062 159.132812 173.285156 153.6875 177.582031 C 152.203125 177.507812 154.261719 172.4375 154.316406 170.203125 C 154.339844 169.039062 153.800781 168.664062 151.875 170.242188 C 150.914062 171.027344 149.601562 172.300781 147.84375 174.210938 C 146.945312 175.148438 146 176.296875 144.949219 177.636719 C 143.894531 178.96875 142.71875 180.484375 141.421875 182.199219 C 133.261719 192.773438 126.265625 204.203125 119.671875 213.375 C 113.257812 222.65625 107.121094 229.714844 100.941406 232.039062 C 98.640625 232.890625 96.316406 236.902344 94.300781 241.96875 C 92.386719 247.09375 90.476562 253.113281 88.734375 257.988281 C 87.78125 260.785156 86.203125 263.824219 84.453125 266.953125 C 83.570312 268.503906 82.660156 270.105469 81.757812 271.6875 C 80.925781 273.300781 80.105469 274.910156 79.359375 276.496094 C 79.339844 274.101562 78.90625 271.871094 78.816406 269.554688 C 78.734375 267.242188 78.875 264.792969 79.816406 261.921875 C 88.09375 236.550781 100.289062 211.457031 114.722656 188.429688 C 117.496094 184.066406 118.390625 180.023438 120.21875 175.808594 C 116.425781 179.902344 112.542969 183.597656 108.875 188.320312 C 93.613281 208.734375 80.578125 231.144531 70.0625 254.839844 C 68.675781 258.054688 67.277344 261.277344 65.882812 264.511719 C 64.542969 267.769531 63.371094 271.101562 62.132812 274.417969 L 60.328125 279.40625 C 59.726562 281.078125 59.128906 282.742188 58.640625 284.445312 C 57.617188 287.832031 56.628906 291.230469 55.679688 294.632812 L 54.234375 299.820312 L 53.023438 305.070312 L 50.640625 315.578125 C 50.21875 317.324219 49.929688 319.097656 49.613281 320.863281 L 48.679688 326.164062 C 48.085938 329.707031 47.398438 333.234375 46.910156 336.785156 C 45.011719 351 43.605469 365.292969 43.355469 379.589844 C 42.636719 408.15625 45.132812 436.847656 50.914062 464.953125 C 51.644531 468.121094 52.382812 471.3125 53.113281 474.496094 C 53.484375 476.089844 53.851562 477.679688 54.21875 479.265625 C 54.578125 480.847656 54.933594 482.429688 55.378906 483.976562 C 56.222656 487.085938 57.035156 490.167969 57.796875 493.191406 C 58.589844 496.207031 59.210938 499.207031 60.023438 502.050781 C 61.558594 507.773438 62.710938 513.226562 63.503906 518.1875 C 64.398438 523.113281 64.777344 527.601562 64.421875 531.507812 C 64.359375 532.25 64.695312 533.992188 65.386719 536.296875 C 66.125 538.582031 67.183594 541.449219 68.398438 544.507812 C 69.640625 547.558594 70.953125 550.839844 72.417969 553.84375 C 73.90625 556.832031 75.386719 559.625 76.667969 561.835938 C 89.207031 583.359375 102.542969 602.140625 113.59375 621.773438 C 115.003906 624.660156 116.574219 627.515625 118.355469 630.285156 C 120.476562 633.382812 122.816406 636.414062 125.34375 639.382812 C 126.609375 640.867188 127.921875 642.332031 129.273438 643.789062 C 130.671875 645.203125 132.140625 646.582031 133.636719 647.957031 C 136.636719 650.703125 139.789062 653.394531 143.09375 656.027344 C 146.992188 658.902344 151.359375 661.878906 155.515625 664.902344 C 157.5625 666.441406 159.6875 667.855469 161.644531 669.328125 C 163.601562 670.792969 165.429688 672.269531 167.042969 673.765625 C 182.601562 688.015625 199.589844 700.027344 217.378906 710.167969 C 221.875 712.632812 226.378906 715.054688 230.882812 717.433594 C 235.488281 719.644531 240.101562 721.808594 244.714844 723.949219 C 247.003906 725.058594 249.375 726 251.726562 726.964844 L 258.789062 729.847656 C 263.46875 731.835938 268.292969 733.46875 273.089844 735.167969 C 290.160156 741.179688 300.933594 745.257812 311.929688 752.292969 C 314.035156 753.703125 316.828125 755.015625 320.09375 756.394531 C 323.363281 757.769531 327.113281 759.175781 331.167969 760.558594 C 335.242188 761.847656 339.648438 762.976562 344.171875 764.101562 C 346.4375 764.644531 348.726562 765.21875 351.042969 765.675781 C 353.359375 766.09375 355.6875 766.484375 358.003906 766.855469 C 360.316406 767.222656 362.617188 767.5625 364.882812 767.871094 C 367.144531 768.171875 369.371094 768.5 371.542969 768.621094 C 375.890625 768.9375 379.992188 769.136719 383.667969 769.195312 C 385.507812 769.226562 387.242188 769.238281 388.84375 769.183594 C 390.449219 769.082031 391.921875 768.953125 393.242188 768.792969 C 395.886719 768.476562 397.921875 768.042969 399.179688 767.484375 C 401.433594 766.488281 403.871094 765.613281 406.472656 764.835938 C 409.078125 764.082031 411.851562 763.203125 414.777344 762.523438 C 420.628906 761.085938 427.105469 760.128906 434.097656 758.816406 C 437.59375 758.21875 441.226562 757.667969 444.972656 757.144531 C 448.722656 756.511719 452.570312 755.859375 456.523438 755.191406 C 458.503906 754.875 460.507812 754.550781 462.539062 754.226562 C 464.574219 753.9375 466.601562 753.449219 468.671875 753.070312 C 472.796875 752.265625 477.015625 751.441406 481.308594 750.601562 C 486.636719 749.386719 492.558594 747.539062 498.378906 745.742188 C 504.15625 743.78125 509.792969 741.660156 514.710938 740.210938 C 517.1875 739.519531 519.402344 738.738281 521.410156 738.3125 C 523.40625 737.859375 525.152344 737.632812 526.570312 737.710938 C 529.410156 737.871094 530.957031 739.25 530.519531 742.492188 C 532.066406 741.988281 533.707031 741.492188 535.371094 740.992188 C 537.03125 740.484375 538.671875 739.875 540.273438 739.316406 C 543.476562 738.175781 546.457031 737.027344 548.605469 735.871094 C 550.09375 735.074219 551.496094 734.304688 552.804688 733.554688 C 554.089844 732.753906 555.277344 731.980469 556.355469 731.242188 C 558.511719 729.761719 560.234375 728.414062 561.414062 727.226562 C 563.765625 724.851562 563.917969 723.125 561.039062 722.1875 C 557.660156 721.058594 560.183594 718.289062 565.269531 714.6875 C 567.785156 712.824219 570.953125 710.757812 574.402344 708.636719 C 576.121094 707.5625 577.941406 706.542969 579.726562 705.398438 C 581.507812 704.261719 583.308594 703.117188 585.082031 701.988281 C 586.976562 700.796875 588.882812 699.644531 590.683594 698.648438 C 592.484375 697.65625 594.175781 696.8125 595.582031 696.160156 C 598.414062 694.898438 600.34375 694.757812 600.316406 696.734375 C 600.253906 700.96875 600.472656 703.074219 603.5625 702.1875 C 606.605469 701.246094 612.726562 697.613281 623.464844 689.292969 C 644.328125 673.265625 663.460938 655.109375 680.089844 635.0625 C 696.757812 615.054688 711.09375 593.351562 722.722656 570.582031 C 726.546875 563.449219 729.601562 556.035156 732.738281 548.773438 C 734.246094 545.113281 735.542969 541.375 736.910156 537.691406 L 738.910156 532.160156 C 739.597656 530.328125 740.105469 528.425781 740.703125 526.5625 L 744.121094 515.359375 C 745.195312 511.609375 746.082031 507.804688 747.058594 504.03125 L 748.492188 498.363281 C 749.003906 496.488281 749.324219 494.546875 749.746094 492.640625 C 750.546875 488.816406 751.347656 484.984375 752.148438 481.144531 C 753.5625 473.371094 753.238281 468.789062 752.804688 465.101562 C 752.398438 461.417969 751.511719 458.546875 751.707031 454.152344 C 751.828125 451.15625 752.210938 447.75 752.742188 444.085938 C 753.121094 440.402344 753.621094 436.449219 754.164062 432.390625 C 754.429688 430.359375 754.730469 428.304688 754.972656 426.238281 C 755.148438 424.167969 755.320312 422.089844 755.496094 420.03125 C 755.804688 415.910156 756.117188 411.84375 756.144531 408.015625 C 756.023438 401.195312 754.039062 395.027344 752.507812 391.0625 C 752.164062 390.171875 749.9375 398.339844 749.132812 403.644531 C 748.863281 405.511719 748.601562 407.332031 748.347656 409.109375 C 748.039062 410.894531 747.75 412.644531 747.492188 414.359375 C 746.96875 417.796875 746.546875 421.109375 746.214844 424.3125 C 745.382812 430.707031 744.726562 436.65625 744.511719 442.320312 C 744.058594 447.953125 743.878906 453.28125 744.011719 458.425781 C 744.054688 463.558594 744.140625 468.457031 744.574219 473.296875 C 746.046875 493.347656 741.3125 517.394531 731.125 541.671875 C 730.492188 543.191406 729.898438 544.734375 729.203125 546.246094 C 728.484375 547.746094 727.769531 549.253906 727.050781 550.769531 C 725.597656 553.792969 724.097656 556.832031 722.5625 559.882812 C 721.003906 562.917969 719.230469 565.871094 717.523438 568.878906 C 716.65625 570.378906 715.777344 571.878906 714.902344 573.386719 C 714.023438 574.886719 713.144531 576.398438 712.164062 577.847656 C 710.230469 580.769531 708.289062 583.703125 706.335938 586.652344 C 705.339844 588.109375 704.390625 589.605469 703.34375 591.03125 C 702.285156 592.457031 701.226562 593.882812 700.167969 595.308594 C 698.03125 598.144531 695.886719 600.992188 693.738281 603.84375 C 691.488281 606.609375 689.183594 609.34375 686.898438 612.085938 C 681.71875 616.367188 676.046875 620.851562 670.4375 625.855469 C 669.734375 626.480469 669.027344 627.105469 668.316406 627.734375 C 667.585938 628.347656 666.847656 628.964844 666.109375 629.582031 C 664.640625 630.832031 663.160156 632.097656 661.667969 633.367188 C 658.6875 635.921875 655.761719 638.632812 652.585938 641.171875 C 649.460938 643.757812 646.3125 646.40625 643.152344 649.09375 C 639.886719 651.667969 636.597656 654.265625 633.28125 656.878906 C 630.023438 659.554688 626.550781 662.003906 623.113281 664.507812 C 619.660156 666.984375 616.28125 669.570312 612.679688 671.835938 C 609.535156 673.90625 603.566406 676.519531 603.789062 676 C 604.738281 673.78125 606.28125 670.75 609.730469 667.613281 C 610.847656 666.582031 612.003906 665.574219 613.109375 664.480469 C 614.207031 663.375 615.316406 662.261719 616.429688 661.140625 C 618.660156 658.894531 620.917969 656.632812 623.203125 654.40625 C 625.488281 652.175781 627.652344 649.800781 629.9375 647.609375 C 632.1875 645.382812 634.527344 643.300781 636.8125 641.246094 C 653.253906 626.585938 664.507812 611.550781 673.207031 596.839844 C 681.890625 582.085938 688.21875 567.65625 693.808594 552.46875 C 694.71875 550.011719 695.515625 547.792969 696.0625 545.523438 C 696.617188 543.277344 697.164062 541.058594 697.726562 538.792969 L 693.574219 544.90625 C 692.15625 546.917969 690.632812 548.867188 689.171875 550.851562 C 687.746094 552.753906 686.226562 554.902344 684.6875 557.089844 C 683.152344 559.28125 681.417969 561.402344 679.84375 563.441406 C 676.640625 567.488281 673.746094 570.980469 671.589844 572.261719 C 669.558594 573.550781 667.558594 575.007812 665.582031 576.609375 C 663.585938 578.199219 661.703125 580.007812 659.621094 581.777344 C 657.582031 583.589844 655.554688 585.523438 653.53125 587.574219 C 652.515625 588.597656 651.511719 589.648438 650.496094 590.726562 C 649.441406 591.777344 648.378906 592.835938 647.304688 593.90625 C 645.175781 596.074219 643.035156 598.332031 640.882812 600.667969 C 638.714844 602.984375 636.375 605.234375 634.101562 607.617188 C 629.613281 612.441406 624.605469 617.042969 619.632812 621.839844 C 606.300781 634.085938 590.820312 644.417969 575.433594 652.734375 C 572.882812 654.113281 570.390625 654.917969 568.097656 655.359375 C 565.761719 655.730469 563.648438 655.792969 561.914062 655.820312 C 561.59375 655.824219 562.980469 654.34375 564.941406 652.550781 C 565.542969 652.007812 566.1875 651.410156 566.847656 650.808594 C 622.882812 616.503906 666.972656 564.59375 691.394531 502.773438 C 692.488281 501.84375 693.617188 500.953125 694.800781 500.097656 C 697.164062 496.019531 699.398438 488.726562 701.644531 483.699219 C 703.863281 478.210938 705.84375 475.160156 707.613281 481.601562 C 708.128906 483.539062 712.316406 478.71875 714.296875 474.070312 C 715.738281 470.898438 716.699219 466.90625 717.691406 462.761719 C 718.183594 460.6875 718.683594 458.574219 719.175781 456.488281 C 719.71875 454.40625 720.035156 452.308594 720.527344 450.332031 C 721.371094 446.65625 722.089844 443.535156 722.703125 440.875 C 723.308594 438.207031 723.585938 435.964844 723.894531 434.121094 C 724.449219 430.414062 724.625 428.195312 724.429688 426.742188 C 724.023438 423.84375 722.222656 423.984375 718.820312 421.351562 C 715.984375 419.195312 713.46875 419.507812 711.042969 421.730469 C 712.054688 411.625 712.582031 401.371094 712.582031 390.992188 C 712.582031 386.1875 712.453125 381.414062 712.234375 376.667969 C 712.980469 375.925781 713.726562 375.183594 714.425781 374.367188 C 715.90625 372.636719 717.316406 370.566406 718.488281 367.390625 C 718.925781 366.140625 718.917969 362.496094 718.613281 358.203125 C 718.21875 354.28125 717.675781 349.824219 717.347656 346.136719 C 716.332031 345.0625 715.351562 343.875 714.289062 343.085938 C 711.261719 340.804688 710.109375 343.023438 709.457031 347.394531 C 707.910156 336.632812 705.820312 326.046875 703.179688 315.679688 C 704.28125 315.582031 705.488281 315.796875 706.765625 316.199219 C 710.167969 317.253906 714.007812 319.589844 717.25 320.234375 C 716.597656 317.351562 715.929688 314.449219 715.210938 311.542969 C 714.253906 308.328125 713.292969 305.089844 712.332031 301.855469 L 710.882812 297.011719 C 710.328125 295.421875 709.78125 293.832031 709.226562 292.246094 C 708.125 289.074219 707.039062 285.910156 706 282.765625 C 704.875 279.648438 703.683594 276.589844 702.609375 273.527344 C 701.515625 270.476562 700.570312 267.410156 699.433594 264.480469 C 697.261719 258.578125 695.601562 252.679688 693.953125 247.109375 C 691.394531 236.992188 689.328125 227.128906 690.878906 223.363281 C 691.808594 221.070312 694.429688 222.207031 697.984375 225.753906 C 698.875 226.640625 699.820312 227.675781 700.8125 228.84375 C 701.800781 230.015625 702.867188 231.304688 703.839844 232.769531 C 705.839844 235.679688 707.953125 239.054688 710.074219 242.753906 C 710.554688 243.582031 711.023438 244.402344 711.492188 245.210938 C 711.929688 246.039062 712.363281 246.851562 712.789062 247.660156 C 713.664062 249.261719 714.519531 250.828125 715.355469 252.359375 C 716.214844 253.875 717.054688 255.355469 717.878906 256.808594 C 718.714844 258.25 719.558594 259.652344 720.292969 261.058594 C 721.808594 263.847656 723.304688 266.492188 724.792969 269 C 726.261719 271.523438 727.808594 273.875 729.109375 276.203125 C 731.816406 280.824219 734.515625 284.972656 737.167969 288.820312 C 739.40625 292.3125 741.644531 295.542969 743.894531 298.613281 C 742.71875 295.300781 741.550781 291.996094 740.382812 288.695312 C 738.8125 284.558594 737.105469 280.46875 735.558594 276.265625 C 733.664062 270.816406 731.652344 265.007812 729.691406 259.367188 C 730.828125 259.679688 731.707031 258.9375 733.164062 260.53125 C 734.863281 262.390625 736.605469 264.328125 738.382812 266.503906 C 739.265625 267.59375 740.210938 268.726562 741.0625 269.972656 C 741.914062 271.21875 742.78125 272.550781 743.652344 273.976562 C 745.792969 277.496094 747.953125 281.089844 750.089844 284.769531 C 752.074219 288.496094 754.058594 292.289062 756.039062 296.132812 C 757.007812 298.0625 758.082031 299.976562 758.957031 301.949219 L 761.667969 307.878906 L 764.367188 313.851562 C 765.273438 315.847656 766.179688 317.84375 766.953125 319.871094 C 766.921875 319.027344 766.894531 318.199219 766.863281 317.390625 " fill-opacity="1" fill-rule="nonzero"/></g><path fill="#e7e8e6" d="M 717.539062 320.304688 C 717.445312 320.285156 717.347656 320.253906 717.25 320.234375 C 717.328125 320.582031 717.414062 320.9375 717.492188 321.289062 C 717.496094 321.207031 717.539062 320.304688 717.539062 320.304688 " fill-opacity="1" fill-rule="nonzero"/><path fill="#e7e8e6" d="M 694.964844 499.972656 C 694.90625 500.011719 694.851562 500.058594 694.800781 500.097656 C 694.605469 500.429688 694.414062 500.746094 694.21875 501.035156 L 694.964844 499.972656 " fill-opacity="1" fill-rule="nonzero"/><path fill="#e7e8e6" d="M 744.660156 299.671875 C 744.40625 299.324219 744.148438 298.96875 743.894531 298.613281 C 744.203125 299.492188 744.511719 300.367188 744.824219 301.25 C 744.8125 301.175781 744.660156 299.671875 744.660156 299.671875 " fill-opacity="1" fill-rule="nonzero"/><path fill="#e7e8e6" d="M 691.988281 585.296875 C 693.117188 583.703125 694.144531 582.035156 695.175781 580.363281 C 696.214844 578.699219 697.257812 577.03125 698.300781 575.363281 L 701.421875 570.351562 C 702.488281 568.691406 703.382812 566.933594 704.371094 565.230469 C 706.277344 561.789062 708.179688 558.351562 710.074219 554.9375 C 711.816406 551.4375 713.496094 547.933594 715.132812 544.453125 C 715.941406 542.703125 716.773438 540.984375 717.519531 539.230469 C 718.21875 537.464844 718.917969 535.703125 719.609375 533.949219 C 720.957031 530.4375 722.277344 526.976562 723.417969 523.515625 C 724.464844 520.015625 725.421875 516.5625 726.273438 513.167969 C 726.695312 511.46875 727.09375 509.785156 727.460938 508.117188 C 727.777344 506.429688 728.03125 504.75 728.277344 503.089844 C 728.601562 500.796875 725.664062 500.972656 724.535156 503.28125 C 724 504.355469 723.46875 505.488281 722.859375 506.632812 C 722.234375 507.769531 721.585938 508.941406 720.929688 510.125 C 719.625 512.5 718.292969 514.941406 717.042969 517.339844 C 716.425781 518.546875 715.820312 519.734375 715.234375 520.882812 C 714.609375 522.023438 714.019531 523.140625 713.472656 524.222656 C 712.390625 526.375 711.496094 528.386719 710.902344 530.148438 C 704.160156 549.644531 697.675781 567.433594 688.941406 585.199219 C 688.253906 586.550781 688.664062 587.15625 688.558594 588.109375 C 689.714844 587.183594 691.265625 586.359375 691.988281 585.296875 " fill-opacity="1" fill-rule="nonzero"/><path fill="#e7e8e6" d="M 158.582031 147.605469 C 159.367188 147.609375 161.496094 146.230469 163.90625 144.667969 C 166.3125 143.09375 168.84375 141.179688 170.179688 139.765625 C 183.097656 126.253906 196.964844 113.613281 211.863281 102.183594 C 226.792969 90.804688 242.644531 80.53125 259.335938 71.519531 C 263.230469 69.492188 267.214844 67.453125 271.203125 65.496094 C 266.339844 67.332031 261.492188 69.140625 256.648438 71.222656 C 255.054688 71.886719 253.5 72.644531 251.957031 73.433594 C 250.417969 74.222656 248.871094 75.007812 247.320312 75.796875 C 244.242188 77.410156 241.121094 78.949219 238.09375 80.648438 L 237.863281 80.296875 C 231.101562 84.417969 224.253906 88.394531 217.78125 92.9375 L 212.871094 96.261719 L 210.417969 97.921875 L 208.039062 99.6875 L 198.566406 106.78125 C 196.976562 107.9375 195.460938 109.203125 193.945312 110.460938 L 189.390625 114.222656 C 186.363281 116.738281 183.316406 119.21875 180.460938 121.917969 L 171.800781 129.882812 C 168.996094 132.613281 166.273438 135.433594 163.53125 138.210938 C 162.039062 139.765625 160.390625 142.042969 159.40625 144.042969 C 158.417969 146.039062 157.957031 147.621094 158.582031 147.605469 " fill-opacity="1" fill-rule="nonzero"/><path fill="#e7e8e6" d="M 717.257812 345.148438 C 717.28125 345.46875 717.3125 345.804688 717.347656 346.136719 C 717.453125 346.25 717.5625 346.371094 717.671875 346.484375 L 717.589844 346.230469 C 717.636719 346.378906 717.671875 346.484375 717.671875 346.484375 L 717.695312 345.988281 C 717.558594 345.730469 717.421875 345.476562 717.28125 345.230469 L 717.257812 345.148438 " fill-opacity="1" fill-rule="nonzero"/><path fill="#e7e8e6" d="M 717.539062 320.378906 C 717.535156 320.449219 717.496094 321.207031 717.492188 321.289062 C 717.523438 321.367188 717.558594 321.445312 717.59375 321.527344 C 717.578125 321.144531 717.554688 320.761719 717.539062 320.378906 " fill-opacity="1" fill-rule="nonzero"/><path fill="#e7e8e6" d="M 717.863281 333.503906 L 717.847656 340.007812 L 717.839844 343.242188 L 717.695312 345.988281 C 719.269531 348.933594 720.886719 352.710938 722.332031 353.835938 C 723.777344 354.957031 725.003906 352.625 726.324219 351.792969 C 725.855469 349.046875 725.371094 346.222656 724.898438 343.449219 C 724.402344 340.683594 723.679688 338.019531 722.988281 335.582031 C 722.195312 332.925781 721.332031 330.496094 720.445312 328.152344 C 719.597656 325.890625 718.535156 323.746094 717.59375 321.527344 C 717.679688 323.332031 717.769531 325.140625 717.851562 326.945312 C 717.886719 329.140625 717.859375 331.328125 717.863281 333.503906 " fill-opacity="1" fill-rule="nonzero"/><path fill="#e7e8e6" d="M 752.027344 316.5625 L 752.929688 318.949219 C 752.660156 317.667969 752.382812 316.40625 752.085938 315.183594 L 752.027344 316.5625 " fill-opacity="1" fill-rule="nonzero"/><path fill="#e7e8e6" d="M 757.007812 331.128906 L 754.601562 323.804688 L 753.390625 320.160156 L 752.929688 318.949219 C 752.996094 319.238281 753.058594 319.527344 753.121094 319.820312 C 753.402344 321.410156 753.636719 323.03125 753.890625 324.644531 C 754.386719 327.878906 754.875 331.101562 755.453125 334.117188 C 756.078125 337.128906 756.582031 339.960938 757.324219 342.386719 C 758.0625 344.820312 759 346.847656 760.242188 348.285156 C 760.6875 348.800781 761.007812 346.8125 761.382812 345.976562 L 759.335938 338.511719 C 758.671875 336.027344 757.78125 333.582031 757.007812 331.128906 " fill-opacity="1" fill-rule="nonzero"/><path fill="#e7e8e6" d="M 734.859375 332.578125 C 734.136719 332.664062 734.070312 336.515625 733.316406 340.675781 C 735.53125 346.378906 737.480469 352.304688 739.53125 356.621094 C 740.128906 357.894531 741.460938 355.503906 741.582031 352.914062 C 741.757812 349.019531 740.875 343.800781 739.546875 339.640625 C 738.058594 335.5 736.226562 332.414062 734.859375 332.578125 " fill-opacity="1" fill-rule="nonzero"/><path fill="#e7e8e6" d="M 713 280.65625 C 714.296875 283.828125 715.589844 287 716.925781 290.273438 C 717.574219 291.917969 718.3125 293.5625 718.914062 295.289062 C 719.523438 297.023438 720.148438 298.792969 720.789062 300.609375 C 721.417969 297.097656 722.125 294.476562 721.917969 293.90625 C 719.835938 288.742188 717.5 283.398438 715.289062 279.445312 C 714.492188 278.027344 713.761719 280.152344 713 280.65625 " fill-opacity="1" fill-rule="nonzero"/><path fill="#e7e8e6" d="M 181.367188 109.722656 C 181.550781 110.609375 185.914062 108.382812 188.375 107.582031 C 189.835938 105.476562 193.148438 101.789062 192.4375 101.542969 C 190.777344 100.902344 187.167969 101.972656 184.277344 102.40625 C 183.03125 105.046875 181.058594 108.238281 181.367188 109.722656 " fill-opacity="1" fill-rule="nonzero"/><path fill="#e7e8e6" d="M 266.746094 739.257812 L 267.578125 738.464844 C 265.550781 737.808594 263.507812 737.179688 261.492188 736.488281 C 263.230469 737.441406 264.992188 738.335938 266.746094 739.257812 " fill-opacity="1" fill-rule="nonzero"/><path fill="#e7e8e6" d="M 192.945312 95.984375 C 191.605469 96.765625 190.191406 97.429688 188.933594 98.359375 C 187.886719 99.160156 186.882812 100.035156 185.878906 100.917969 L 188.671875 98.875 C 190.058594 97.863281 191.523438 96.949219 192.945312 95.984375 " fill-opacity="1" fill-rule="nonzero"/><path fill="#e7e8e6" d="M 185.878906 100.917969 L 184.507812 101.921875 C 184.5 101.925781 184.152344 102.421875 184.152344 102.421875 C 184.191406 102.421875 184.238281 102.414062 184.277344 102.40625 C 184.300781 102.355469 184.320312 102.308594 184.347656 102.257812 C 184.855469 101.8125 185.367188 101.363281 185.878906 100.917969 " fill-opacity="1" fill-rule="nonzero"/><path fill="#e7e8e6" d="M 681.898438 529.429688 L 682.253906 531.214844 L 684.238281 528.027344 C 684.113281 527.449219 684.140625 526.570312 683.777344 526.46875 C 683.65625 526.4375 682.550781 528.390625 681.898438 529.429688 " fill-opacity="1" fill-rule="nonzero"/><path fill="#e7e8e6" d="M 752.019531 316.589844 C 752.019531 316.558594 752.085938 315.183594 752.085938 315.183594 C 750.886719 312.601562 749.683594 310.015625 748.480469 307.425781 C 747.875 306.140625 747.269531 304.851562 746.664062 303.566406 C 746.003906 302.292969 745.339844 301.023438 744.675781 299.75 C 744.679688 299.820312 744.816406 301.175781 744.824219 301.25 C 746.167969 303.71875 747.289062 306.277344 748.480469 308.839844 C 749.65625 311.421875 750.839844 314.003906 752.019531 316.589844 " fill-opacity="1" fill-rule="nonzero"/><path fill="#e7e8e6" d="M 694.96875 499.96875 C 694.964844 499.976562 694.21875 501.035156 694.21875 501.035156 L 694.558594 503.03125 C 694.558594 503.03125 694.96875 499.976562 694.96875 499.96875 " fill-opacity="1" fill-rule="nonzero"/><g clip-path="url(#02e1625f44)"><path fill="#f2ac34" d="M 496.730469 637.117188 L 313.066406 637.117188 C 301.492188 637.117188 292.117188 627.726562 292.117188 616.148438 L 292.117188 356.714844 C 292.117188 345.128906 301.492188 335.738281 313.066406 335.738281 L 496.730469 335.738281 C 508.300781 335.738281 517.675781 345.128906 517.675781 356.714844 L 517.675781 616.148438 C 517.675781 627.726562 508.300781 637.117188 496.730469 637.117188 " fill-opacity="1" fill-rule="nonzero"/></g><path fill="#e7e8e6" d="M 496.761719 608.832031 L 313.027344 608.832031 L 313.027344 364.03125 L 496.761719 364.03125 L 496.761719 608.832031 " fill-opacity="1" fill-rule="nonzero"/><g clip-path="url(#f56bcf857a)"><path fill="#192746" d="M 462.476562 372.445312 L 347.316406 372.445312 L 347.316406 329.378906 C 347.316406 320.378906 354.609375 313.074219 363.605469 313.074219 L 446.1875 313.074219 C 455.1875 313.074219 462.476562 320.378906 462.476562 329.378906 L 462.476562 372.445312 " fill-opacity="1" fill-rule="nonzero"/></g><path fill="#ffffff" d="M 391.339844 323.019531 L 373.738281 323.019531 C 368.441406 323.019531 364.148438 327.320312 364.148438 332.621094 C 364.148438 337.921875 368.441406 342.214844 373.738281 342.214844 L 391.339844 342.214844 L 391.339844 323.019531 " fill-opacity="1" fill-rule="nonzero"/><path fill="#ffffff" d="M 436.054688 323.019531 L 418.453125 323.019531 L 418.453125 342.214844 L 436.054688 342.214844 C 441.351562 342.214844 445.644531 337.921875 445.644531 332.621094 C 445.644531 327.320312 441.351562 323.019531 436.054688 323.019531 " fill-opacity="1" fill-rule="nonzero"/><path stroke-linecap="round" transform="matrix(0.163137, 0, 0, -0.163306, 102.17912, 822.285675)" fill="none" stroke-linejoin="miter" d="M 1798.601123 2494.139758 L 2248.041018 2494.139758 " stroke="#192746" stroke-width="30" stroke-opacity="1" stroke-miterlimit="10"/><path stroke-linecap="round" transform="matrix(0.163137, 0, 0, -0.163306, 102.17912, 822.285675)" fill="none" stroke-linejoin="miter" d="M 1798.601123 2306.441455 L 2248.041018 2306.441455 " stroke="#192746" stroke-width="30" stroke-opacity="1" stroke-miterlimit="10"/><path stroke-linecap="round" transform="matrix(0.163137, 0, 0, -0.163306, 102.17912, 822.285675)" fill="none" stroke-linejoin="miter" d="M 1798.601123 2118.719232 L 2248.041018 2118.719232 " stroke="#192746" stroke-width="30" stroke-opacity="1" stroke-miterlimit="10"/><path stroke-linecap="round" transform="matrix(0.163137, 0, 0, -0.163306, 102.17912, 822.285675)" fill="none" stroke-linejoin="miter" d="M 1798.601123 1931.020929 L 2248.041018 1931.020929 " stroke="#192746" stroke-width="30" stroke-opacity="1" stroke-miterlimit="10"/><path stroke-linecap="round" transform="matrix(0.163137, 0, 0, -0.163306, 102.17912, 822.285675)" fill="none" stroke-linejoin="miter" d="M 1798.601123 1743.322625 L 2248.041018 1743.322625 " stroke="#192746" stroke-width="30" stroke-opacity="1" stroke-miterlimit="10"/><path stroke-linecap="round" transform="matrix(0.163137, 0, 0, -0.163306, 102.17912, 822.285675)" fill="none" stroke-linejoin="miter" d="M 1798.601123 1555.600402 L 2248.041018 1555.600402 " stroke="#192746" stroke-width="30" stroke-opacity="1" stroke-miterlimit="10"/><path stroke-linecap="round" transform="matrix(0.163137, 0, 0, -0.163306, 102.17912, 822.285675)" fill="none" stroke-linejoin="round" d="M 1584.728073 2330.002412 L 1420.587929 2330.002412 L 1420.587929 2494.139758 L 1584.728073 2494.139758 Z M 1584.728073 2330.002412 " stroke="#192746" stroke-width="30" stroke-opacity="1" stroke-miterlimit="10"/><path stroke-linecap="round" transform="matrix(0.163137, 0, 0, -0.163306, 102.17912, 822.285675)" fill="none" stroke-linejoin="round" d="M 1584.728073 1954.605805 L 1420.587929 1954.605805 L 1420.587929 2118.719232 L 1584.728073 2118.719232 Z M 1584.728073 1954.605805 " stroke="#192746" stroke-width="30" stroke-opacity="1" stroke-miterlimit="10"/><path stroke-linecap="round" transform="matrix(0.163137, 0, 0, -0.163306, 102.17912, 822.285675)" fill="none" stroke-linejoin="round" d="M 1584.728073 1579.185279 L 1420.587929 1579.185279 L 1420.587929 1743.322625 L 1584.728073 1743.322625 Z M 1584.728073 1579.185279 " stroke="#192746" stroke-width="30" stroke-opacity="1" stroke-miterlimit="10"/><path stroke-linecap="round" transform="matrix(0.163137, 0, 0, -0.163306, 102.17912, 822.285675)" fill="none" stroke-linejoin="round" d="M 1461.317672 2441.444542 L 1524.770827 2380.640529 L 1667.528454 2623.880499 " stroke="#d64151" stroke-width="30" stroke-opacity="1" stroke-miterlimit="10"/><path stroke-linecap="round" transform="matrix(0.163137, 0, 0, -0.163306, 102.17912, 822.285675)" fill="none" stroke-linejoin="round" d="M 1461.317672 2065.521701 L 1524.770827 2004.693768 L 1667.528454 2247.933738 " stroke="#d64151" stroke-width="30" stroke-opacity="1" stroke-miterlimit="10"/><path stroke-linecap="round" transform="matrix(0.163137, 0, 0, -0.163306, 102.17912, 822.285675)" fill="none" stroke-linejoin="round" d="M 1461.317672 1689.57494 L 1524.770827 1628.747008 L 1667.528454 1872.010898 " stroke="#d64151" stroke-width="30" stroke-opacity="1" stroke-miterlimit="10"/><g fill="#000000" fill-opacity="1"><g transform="translate(208.469746, 239.625645)"><g><path d="M 17.5625 -27.640625 C 17.84375 -26.046875 17.773438 -24.421875 17.359375 -22.765625 C 16.953125 -21.109375 16.285156 -19.5625 15.359375 -18.125 C 14.429688 -16.695312 13.300781 -15.457031 11.96875 -14.40625 C 10.632812 -13.363281 9.191406 -12.65625 7.640625 -12.28125 C 7.703125 -11.75 7.796875 -11.070312 7.921875 -10.25 C 8.054688 -9.4375 8.160156 -8.582031 8.234375 -7.6875 C 8.316406 -6.789062 8.351562 -5.882812 8.34375 -4.96875 C 8.34375 -4.050781 8.25 -3.210938 8.0625 -2.453125 C 7.882812 -1.691406 7.585938 -1.046875 7.171875 -0.515625 C 6.765625 0.015625 6.210938 0.34375 5.515625 0.46875 C 4.691406 0.625 3.988281 0.46875 3.40625 0 C 2.820312 -0.457031 2.332031 -1.046875 1.9375 -1.765625 C 1.550781 -2.484375 1.238281 -3.253906 1 -4.078125 C 0.757812 -4.910156 0.570312 -5.613281 0.4375 -6.1875 C 0.226562 -7.039062 0.0390625 -7.878906 -0.125 -8.703125 C -0.289062 -9.523438 -0.445312 -10.363281 -0.59375 -11.21875 C -0.664062 -11.59375 -0.796875 -12.304688 -0.984375 -13.359375 C -1.171875 -14.410156 -1.378906 -15.601562 -1.609375 -16.9375 C -1.835938 -18.28125 -2.066406 -19.679688 -2.296875 -21.140625 C -2.535156 -22.609375 -2.738281 -23.972656 -2.90625 -25.234375 C -3.082031 -26.492188 -3.207031 -27.578125 -3.28125 -28.484375 C -3.363281 -29.390625 -3.363281 -29.921875 -3.28125 -30.078125 C -3.25 -30.109375 -3.171875 -30.191406 -3.046875 -30.328125 C -2.921875 -30.460938 -2.773438 -30.597656 -2.609375 -30.734375 C -2.453125 -30.867188 -2.304688 -30.988281 -2.171875 -31.09375 C -2.046875 -31.207031 -1.957031 -31.285156 -1.90625 -31.328125 C -0.6875 -32.335938 0.675781 -33.265625 2.1875 -34.109375 C 3.707031 -34.960938 5.269531 -35.535156 6.875 -35.828125 C 8.226562 -36.066406 9.503906 -36.015625 10.703125 -35.671875 C 11.898438 -35.335938 12.972656 -34.789062 13.921875 -34.03125 C 14.867188 -33.28125 15.65625 -32.34375 16.28125 -31.21875 C 16.90625 -30.101562 17.332031 -28.910156 17.5625 -27.640625 Z M 10.09375 -25.25 C 9.988281 -25.832031 9.753906 -26.316406 9.390625 -26.703125 C 9.035156 -27.097656 8.535156 -27.238281 7.890625 -27.125 C 7.328125 -27.019531 6.785156 -26.804688 6.265625 -26.484375 C 5.742188 -26.171875 5.269531 -25.851562 4.84375 -25.53125 C 5.113281 -24.507812 5.375 -23.519531 5.625 -22.5625 C 5.875 -21.601562 6.0625 -20.609375 6.1875 -19.578125 C 6.625 -19.890625 7.09375 -20.25 7.59375 -20.65625 C 8.101562 -21.0625 8.554688 -21.5 8.953125 -21.96875 C 9.359375 -22.445312 9.675781 -22.957031 9.90625 -23.5 C 10.144531 -24.050781 10.207031 -24.632812 10.09375 -25.25 Z M 10.09375 -25.25 "/></g></g></g><g fill="#000000" fill-opacity="1"><g transform="translate(229.772272, 235.805274)"><g><path d="M 15.640625 -33.609375 C 15.765625 -32.867188 15.582031 -32.144531 15.09375 -31.4375 C 14.613281 -30.738281 14.003906 -30.09375 13.265625 -29.5 C 12.535156 -28.914062 11.765625 -28.40625 10.953125 -27.96875 C 10.148438 -27.53125 9.476562 -27.210938 8.9375 -27.015625 C 9.070312 -24.691406 9.253906 -22.390625 9.484375 -20.109375 C 9.710938 -17.835938 10.007812 -15.5625 10.375 -13.28125 C 10.570312 -12.0625 10.796875 -10.863281 11.046875 -9.6875 C 11.296875 -8.519531 11.515625 -7.347656 11.703125 -6.171875 C 11.785156 -5.640625 11.828125 -5.046875 11.828125 -4.390625 C 11.828125 -3.742188 11.742188 -3.117188 11.578125 -2.515625 C 11.421875 -1.910156 11.148438 -1.378906 10.765625 -0.921875 C 10.390625 -0.460938 9.878906 -0.179688 9.234375 -0.078125 C 8.453125 0.046875 7.800781 -0.0664062 7.28125 -0.421875 C 6.757812 -0.773438 6.320312 -1.242188 5.96875 -1.828125 C 5.613281 -2.410156 5.332031 -3.039062 5.125 -3.71875 C 4.925781 -4.394531 4.78125 -5.015625 4.6875 -5.578125 C 4.351562 -7.335938 4.023438 -9.109375 3.703125 -10.890625 C 3.390625 -12.671875 3.085938 -14.46875 2.796875 -16.28125 C 2.546875 -17.78125 2.3125 -19.257812 2.09375 -20.71875 C 1.875 -22.175781 1.644531 -23.660156 1.40625 -25.171875 C 1 -25.046875 0.582031 -24.929688 0.15625 -24.828125 C -0.269531 -24.722656 -0.703125 -24.632812 -1.140625 -24.5625 C -1.492188 -24.507812 -1.960938 -24.472656 -2.546875 -24.453125 C -3.128906 -24.429688 -3.703125 -24.472656 -4.265625 -24.578125 C -4.835938 -24.691406 -5.34375 -24.882812 -5.78125 -25.15625 C -6.226562 -25.4375 -6.492188 -25.847656 -6.578125 -26.390625 C -6.722656 -27.273438 -6.503906 -28.101562 -5.921875 -28.875 C -5.335938 -29.644531 -4.546875 -30.363281 -3.546875 -31.03125 C -2.546875 -31.695312 -1.410156 -32.300781 -0.140625 -32.84375 C 1.117188 -33.394531 2.375 -33.875 3.625 -34.28125 C 4.882812 -34.6875 6.046875 -35.019531 7.109375 -35.28125 C 8.171875 -35.539062 9.003906 -35.71875 9.609375 -35.8125 C 10.160156 -35.894531 10.757812 -35.960938 11.40625 -36.015625 C 12.050781 -36.078125 12.671875 -36.050781 13.265625 -35.9375 C 13.859375 -35.832031 14.375 -35.601562 14.8125 -35.25 C 15.25 -34.894531 15.523438 -34.347656 15.640625 -33.609375 Z M 15.640625 -33.609375 "/></g></g></g><g fill="#000000" fill-opacity="1"><g transform="translate(246.474093, 233.128984)"><g/></g></g><g fill="#000000" fill-opacity="1"><g transform="translate(256.983101, 231.552339)"><g><path d="M 16.515625 -33.171875 C 16.617188 -32.429688 16.421875 -31.71875 15.921875 -31.03125 C 15.421875 -30.351562 14.796875 -29.726562 14.046875 -29.15625 C 13.296875 -28.582031 12.507812 -28.085938 11.6875 -27.671875 C 10.863281 -27.253906 10.179688 -26.957031 9.640625 -26.78125 C 9.710938 -24.457031 9.832031 -22.148438 10 -19.859375 C 10.175781 -17.566406 10.414062 -15.273438 10.71875 -12.984375 C 10.882812 -11.773438 11.078125 -10.582031 11.296875 -9.40625 C 11.515625 -8.226562 11.703125 -7.046875 11.859375 -5.859375 C 11.929688 -5.328125 11.957031 -4.734375 11.9375 -4.078125 C 11.914062 -3.421875 11.816406 -2.796875 11.640625 -2.203125 C 11.460938 -1.609375 11.175781 -1.085938 10.78125 -0.640625 C 10.394531 -0.191406 9.878906 0.0703125 9.234375 0.15625 C 8.453125 0.257812 7.800781 0.128906 7.28125 -0.234375 C 6.769531 -0.597656 6.347656 -1.070312 6.015625 -1.65625 C 5.679688 -2.25 5.421875 -2.890625 5.234375 -3.578125 C 5.054688 -4.265625 4.925781 -4.890625 4.84375 -5.453125 C 4.539062 -7.222656 4.253906 -9.003906 3.984375 -10.796875 C 3.710938 -12.597656 3.457031 -14.40625 3.21875 -16.21875 C 3.007812 -17.726562 2.8125 -19.207031 2.625 -20.65625 C 2.445312 -22.113281 2.257812 -23.601562 2.0625 -25.125 C 1.65625 -25.007812 1.234375 -24.90625 0.796875 -24.8125 C 0.367188 -24.71875 -0.0664062 -24.644531 -0.515625 -24.59375 C -0.859375 -24.539062 -1.320312 -24.507812 -1.90625 -24.5 C -2.488281 -24.5 -3.0625 -24.5625 -3.625 -24.6875 C -4.1875 -24.8125 -4.6875 -25.015625 -5.125 -25.296875 C -5.5625 -25.585938 -5.816406 -26 -5.890625 -26.53125 C -6.015625 -27.425781 -5.769531 -28.253906 -5.15625 -29.015625 C -4.550781 -29.773438 -3.738281 -30.472656 -2.71875 -31.109375 C -1.707031 -31.742188 -0.5625 -32.320312 0.71875 -32.84375 C 2 -33.363281 3.269531 -33.804688 4.53125 -34.171875 C 5.800781 -34.546875 6.96875 -34.847656 8.03125 -35.078125 C 9.101562 -35.316406 9.9375 -35.476562 10.53125 -35.5625 C 11.09375 -35.632812 11.695312 -35.6875 12.34375 -35.71875 C 13 -35.757812 13.617188 -35.710938 14.203125 -35.578125 C 14.796875 -35.453125 15.304688 -35.207031 15.734375 -34.84375 C 16.160156 -34.476562 16.421875 -33.921875 16.515625 -33.171875 Z M 16.515625 -33.171875 "/></g></g></g><g fill="#000000" fill-opacity="1"><g transform="translate(273.62643, 229.257597)"><g><path d="M 23.484375 -18.53125 C 23.628906 -17.300781 23.710938 -16.035156 23.734375 -14.734375 C 23.765625 -13.429688 23.695312 -12.148438 23.53125 -10.890625 C 23.375 -9.628906 23.097656 -8.429688 22.703125 -7.296875 C 22.304688 -6.160156 21.753906 -5.132812 21.046875 -4.21875 C 20.335938 -3.3125 19.441406 -2.550781 18.359375 -1.9375 C 17.273438 -1.332031 15.976562 -0.941406 14.46875 -0.765625 C 12.226562 -0.515625 10.222656 -0.816406 8.453125 -1.671875 C 6.691406 -2.535156 5.164062 -3.710938 3.875 -5.203125 C 2.59375 -6.703125 1.570312 -8.425781 0.8125 -10.375 C 0.0507812 -12.320312 -0.4375 -14.273438 -0.65625 -16.234375 C -0.675781 -16.441406 -0.695312 -16.632812 -0.71875 -16.8125 C -0.738281 -17 -0.742188 -17.171875 -0.734375 -17.328125 C -0.785156 -17.953125 -0.832031 -18.800781 -0.875 -19.875 C -0.925781 -20.957031 -0.929688 -22.117188 -0.890625 -23.359375 C -0.859375 -24.609375 -0.769531 -25.882812 -0.625 -27.1875 C -0.476562 -28.5 -0.234375 -29.6875 0.109375 -30.75 C 0.453125 -31.820312 0.910156 -32.71875 1.484375 -33.4375 C 2.066406 -34.164062 2.804688 -34.582031 3.703125 -34.6875 C 4.347656 -34.757812 4.914062 -34.628906 5.40625 -34.296875 C 5.90625 -33.972656 6.328125 -33.53125 6.671875 -32.96875 C 7.023438 -32.414062 7.296875 -31.828125 7.484375 -31.203125 C 7.671875 -30.578125 7.796875 -29.992188 7.859375 -29.453125 C 7.953125 -28.648438 7.960938 -27.832031 7.890625 -27 C 7.828125 -26.164062 7.765625 -25.335938 7.703125 -24.515625 C 7.609375 -23.210938 7.554688 -21.910156 7.546875 -20.609375 C 7.546875 -19.316406 7.625 -18 7.78125 -16.65625 C 7.851562 -15.96875 7.984375 -15.140625 8.171875 -14.171875 C 8.367188 -13.203125 8.664062 -12.273438 9.0625 -11.390625 C 9.46875 -10.515625 9.976562 -9.789062 10.59375 -9.21875 C 11.21875 -8.65625 12.003906 -8.425781 12.953125 -8.53125 C 13.878906 -8.632812 14.582031 -9.023438 15.0625 -9.703125 C 15.539062 -10.390625 15.863281 -11.179688 16.03125 -12.078125 C 16.207031 -12.972656 16.273438 -13.898438 16.234375 -14.859375 C 16.203125 -15.816406 16.148438 -16.640625 16.078125 -17.328125 C 15.847656 -19.285156 15.460938 -21.207031 14.921875 -23.09375 C 14.378906 -24.976562 13.726562 -26.84375 12.96875 -28.6875 C 12.769531 -29.1875 12.585938 -29.679688 12.421875 -30.171875 C 12.265625 -30.660156 12.160156 -31.160156 12.109375 -31.671875 C 12.015625 -32.503906 12.175781 -33.257812 12.59375 -33.9375 C 13.007812 -34.613281 13.660156 -35.003906 14.546875 -35.109375 C 15.296875 -35.191406 16.019531 -34.976562 16.71875 -34.46875 C 17.425781 -33.957031 18.085938 -33.257812 18.703125 -32.375 C 19.316406 -31.5 19.875 -30.503906 20.375 -29.390625 C 20.875 -28.273438 21.320312 -27.160156 21.71875 -26.046875 C 22.125 -24.929688 22.453125 -23.859375 22.703125 -22.828125 C 22.960938 -21.796875 23.140625 -20.957031 23.234375 -20.3125 C 23.304688 -20.007812 23.359375 -19.71875 23.390625 -19.4375 C 23.421875 -19.15625 23.453125 -18.851562 23.484375 -18.53125 Z M 23.484375 -18.53125 "/></g></g></g><g fill="#000000" fill-opacity="1"><g transform="translate(300.136501, 226.263312)"><g><path d="M 20.4375 -12.640625 C 20.28125 -11.285156 19.972656 -9.859375 19.515625 -8.359375 C 19.066406 -6.859375 18.441406 -5.46875 17.640625 -4.1875 C 16.835938 -2.914062 15.84375 -1.84375 14.65625 -0.96875 C 13.46875 -0.09375 12.066406 0.414062 10.453125 0.5625 C 9.265625 0.664062 8.171875 0.519531 7.171875 0.125 C 6.179688 -0.257812 5.257812 -0.816406 4.40625 -1.546875 C 3.5625 -2.285156 2.8125 -3.15625 2.15625 -4.15625 C 1.5 -5.15625 0.929688 -6.195312 0.453125 -7.28125 C -0.015625 -8.363281 -0.390625 -9.445312 -0.671875 -10.53125 C -0.953125 -11.625 -1.132812 -12.648438 -1.21875 -13.609375 C -1.332031 -14.941406 -1.332031 -16.390625 -1.21875 -17.953125 C -1.101562 -19.515625 -0.859375 -21.070312 -0.484375 -22.625 C -0.109375 -24.175781 0.398438 -25.675781 1.046875 -27.125 C 1.703125 -28.582031 2.507812 -29.882812 3.46875 -31.03125 C 4.4375 -32.1875 5.554688 -33.144531 6.828125 -33.90625 C 8.097656 -34.664062 9.550781 -35.117188 11.1875 -35.265625 C 12.238281 -35.359375 13.226562 -35.242188 14.15625 -34.921875 C 15.082031 -34.609375 15.90625 -34.144531 16.625 -33.53125 C 17.34375 -32.914062 17.929688 -32.160156 18.390625 -31.265625 C 18.847656 -30.378906 19.125 -29.425781 19.21875 -28.40625 L 19.25 -28 C 19.300781 -27.46875 19.335938 -26.800781 19.359375 -26 C 19.378906 -25.207031 19.300781 -24.441406 19.125 -23.703125 C 18.945312 -22.972656 18.640625 -22.320312 18.203125 -21.75 C 17.773438 -21.1875 17.128906 -20.867188 16.265625 -20.796875 C 15.222656 -20.703125 14.410156 -20.867188 13.828125 -21.296875 C 13.253906 -21.734375 12.921875 -22.503906 12.828125 -23.609375 C 12.785156 -24.023438 12.757812 -24.441406 12.75 -24.859375 C 12.738281 -25.285156 12.710938 -25.707031 12.671875 -26.125 C 12.617188 -26.738281 12.472656 -27.207031 12.234375 -27.53125 C 11.992188 -27.863281 11.550781 -28 10.90625 -27.9375 C 10.15625 -27.875 9.5 -27.578125 8.9375 -27.046875 C 8.382812 -26.515625 7.921875 -25.84375 7.546875 -25.03125 C 7.179688 -24.21875 6.875 -23.300781 6.625 -22.28125 C 6.382812 -21.269531 6.203125 -20.253906 6.078125 -19.234375 C 5.960938 -18.210938 5.898438 -17.234375 5.890625 -16.296875 C 5.878906 -15.367188 5.90625 -14.582031 5.96875 -13.9375 C 6.019531 -13.394531 6.109375 -12.773438 6.234375 -12.078125 C 6.359375 -11.378906 6.546875 -10.71875 6.796875 -10.09375 C 7.046875 -9.46875 7.382812 -8.945312 7.8125 -8.53125 C 8.238281 -8.125 8.757812 -7.945312 9.375 -8 C 10.457031 -8.09375 11.296875 -8.507812 11.890625 -9.25 C 12.492188 -9.988281 12.863281 -10.882812 13 -11.9375 C 12.582031 -11.957031 12.164062 -12.015625 11.75 -12.109375 C 11.332031 -12.210938 10.941406 -12.375 10.578125 -12.59375 C 10.210938 -12.820312 9.90625 -13.113281 9.65625 -13.46875 C 9.414062 -13.832031 9.273438 -14.257812 9.234375 -14.75 C 9.148438 -15.6875 9.398438 -16.441406 9.984375 -17.015625 C 10.566406 -17.597656 11.269531 -18.0625 12.09375 -18.40625 C 12.914062 -18.75 13.769531 -18.992188 14.65625 -19.140625 C 15.550781 -19.285156 16.265625 -19.382812 16.796875 -19.4375 C 17.179688 -19.46875 17.75 -19.488281 18.5 -19.5 C 19.257812 -19.519531 20.015625 -19.460938 20.765625 -19.328125 C 21.515625 -19.203125 22.171875 -18.984375 22.734375 -18.671875 C 23.304688 -18.359375 23.617188 -17.921875 23.671875 -17.359375 C 23.765625 -16.234375 23.539062 -15.226562 23 -14.34375 C 22.457031 -13.457031 21.601562 -12.890625 20.4375 -12.640625 Z M 20.4375 -12.640625 "/></g></g></g><g fill="#000000" fill-opacity="1"><g transform="translate(323.631579, 224.152234)"><g><path d="M 23.546875 -8.21875 C 23.585938 -7.613281 23.582031 -6.890625 23.53125 -6.046875 C 23.476562 -5.210938 23.328125 -4.398438 23.078125 -3.609375 C 22.835938 -2.828125 22.476562 -2.160156 22 -1.609375 C 21.53125 -1.054688 20.875 -0.75 20.03125 -0.6875 C 18.925781 -0.613281 18.070312 -0.960938 17.46875 -1.734375 C 16.863281 -2.503906 16.40625 -3.441406 16.09375 -4.546875 C 15.78125 -5.648438 15.5625 -6.785156 15.4375 -7.953125 C 15.320312 -9.117188 15.222656 -10.039062 15.140625 -10.71875 C 13.003906 -10.226562 10.90625 -9.78125 8.84375 -9.375 C 8.820312 -8.675781 8.75 -7.8125 8.625 -6.78125 C 8.5 -5.75 8.265625 -4.75 7.921875 -3.78125 C 7.578125 -2.820312 7.101562 -1.976562 6.5 -1.25 C 5.90625 -0.519531 5.144531 -0.125 4.21875 -0.0625 C 3.507812 -0.0078125 2.9375 -0.226562 2.5 -0.71875 C 2.0625 -1.21875 1.710938 -1.816406 1.453125 -2.515625 C 1.191406 -3.222656 1.015625 -3.957031 0.921875 -4.71875 C 0.835938 -5.476562 0.773438 -6.113281 0.734375 -6.625 C 0.628906 -8.332031 0.65625 -10.019531 0.8125 -11.6875 C 0.976562 -13.363281 1.179688 -15.039062 1.421875 -16.71875 C 1.546875 -17.59375 1.71875 -18.625 1.9375 -19.8125 C 2.15625 -21 2.4375 -22.222656 2.78125 -23.484375 C 3.132812 -24.753906 3.5625 -26.007812 4.0625 -27.25 C 4.570312 -28.5 5.171875 -29.628906 5.859375 -30.640625 C 6.546875 -31.648438 7.34375 -32.484375 8.25 -33.140625 C 9.164062 -33.796875 10.207031 -34.160156 11.375 -34.234375 C 12.507812 -34.304688 13.515625 -34.117188 14.390625 -33.671875 C 15.265625 -33.222656 16.039062 -32.597656 16.71875 -31.796875 C 17.40625 -31.003906 17.992188 -30.085938 18.484375 -29.046875 C 18.972656 -28.015625 19.394531 -26.960938 19.75 -25.890625 C 20.101562 -24.828125 20.410156 -23.773438 20.671875 -22.734375 C 20.941406 -21.703125 21.175781 -20.785156 21.375 -19.984375 C 21.882812 -18.085938 22.335938 -16.148438 22.734375 -14.171875 C 23.140625 -12.203125 23.410156 -10.21875 23.546875 -8.21875 Z M 14.171875 -18.546875 C 14.148438 -18.898438 14.085938 -19.484375 13.984375 -20.296875 C 13.890625 -21.117188 13.738281 -21.9375 13.53125 -22.75 C 13.332031 -23.5625 13.054688 -24.28125 12.703125 -24.90625 C 12.347656 -25.53125 11.898438 -25.828125 11.359375 -25.796875 C 11.054688 -25.773438 10.78125 -25.550781 10.53125 -25.125 C 10.289062 -24.695312 10.085938 -24.171875 9.921875 -23.546875 C 9.753906 -22.921875 9.613281 -22.226562 9.5 -21.46875 C 9.382812 -20.707031 9.289062 -19.976562 9.21875 -19.28125 C 9.144531 -18.59375 9.097656 -17.972656 9.078125 -17.421875 C 9.054688 -16.867188 9.035156 -16.46875 9.015625 -16.21875 C 10.804688 -16.488281 12.554688 -16.832031 14.265625 -17.25 Z M 14.171875 -18.546875 "/></g></g></g><g fill="#000000" fill-opacity="1"><g transform="translate(348.885136, 222.532757)"><g><path d="M 14.5625 -32.234375 C 14.59375 -31.546875 14.40625 -30.9375 14 -30.40625 C 13.59375 -29.875 13.097656 -29.4375 12.515625 -29.09375 C 11.992188 -28.726562 11.457031 -28.34375 10.90625 -27.9375 C 10.351562 -27.539062 9.847656 -27.097656 9.390625 -26.609375 C 8.929688 -26.128906 8.5625 -25.597656 8.28125 -25.015625 C 8.007812 -24.429688 7.890625 -23.78125 7.921875 -23.0625 C 7.953125 -22.445312 8.128906 -21.890625 8.453125 -21.390625 C 8.773438 -20.898438 9.164062 -20.414062 9.625 -19.9375 C 10.082031 -19.46875 10.582031 -18.984375 11.125 -18.484375 C 11.675781 -17.984375 12.179688 -17.421875 12.640625 -16.796875 C 13.109375 -16.171875 13.507812 -15.457031 13.84375 -14.65625 C 14.175781 -13.863281 14.367188 -12.929688 14.421875 -11.859375 C 14.453125 -11.109375 14.332031 -10.253906 14.0625 -9.296875 C 13.800781 -8.347656 13.421875 -7.382812 12.921875 -6.40625 C 12.429688 -5.425781 11.835938 -4.46875 11.140625 -3.53125 C 10.453125 -2.59375 9.710938 -1.753906 8.921875 -1.015625 C 8.128906 -0.273438 7.296875 0.328125 6.421875 0.796875 C 5.546875 1.273438 4.691406 1.535156 3.859375 1.578125 C 2.921875 1.617188 2.082031 1.398438 1.34375 0.921875 C 0.601562 0.441406 0.207031 -0.300781 0.15625 -1.3125 C 0.125 -2.007812 0.257812 -2.65625 0.5625 -3.25 C 0.875 -3.851562 1.253906 -4.429688 1.703125 -4.984375 C 2.160156 -5.546875 2.671875 -6.09375 3.234375 -6.625 C 3.796875 -7.164062 4.300781 -7.695312 4.75 -8.21875 C 5.207031 -8.75 5.585938 -9.296875 5.890625 -9.859375 C 6.191406 -10.429688 6.332031 -11.03125 6.3125 -11.65625 C 6.269531 -12.53125 5.921875 -13.410156 5.265625 -14.296875 C 4.609375 -15.179688 3.878906 -16.09375 3.078125 -17.03125 C 2.285156 -17.96875 1.5625 -18.929688 0.90625 -19.921875 C 0.25 -20.921875 -0.101562 -21.9375 -0.15625 -22.96875 C -0.207031 -24.257812 0.0703125 -25.628906 0.6875 -27.078125 C 1.3125 -28.535156 2.132812 -29.878906 3.15625 -31.109375 C 4.1875 -32.335938 5.351562 -33.375 6.65625 -34.21875 C 7.96875 -35.0625 9.28125 -35.515625 10.59375 -35.578125 C 11.644531 -35.628906 12.554688 -35.351562 13.328125 -34.75 C 14.097656 -34.15625 14.507812 -33.316406 14.5625 -32.234375 Z M 14.5625 -32.234375 "/></g></g></g><g fill="#000000" fill-opacity="1"><g transform="translate(364.936342, 221.808812)"><g/></g></g><g fill="#000000" fill-opacity="1"><g transform="translate(375.556312, 221.43271)"><g><path d="M 20.171875 -31.109375 C 20.191406 -30.359375 19.914062 -29.671875 19.34375 -29.046875 C 18.769531 -28.421875 18.078125 -27.863281 17.265625 -27.375 C 16.453125 -26.894531 15.613281 -26.492188 14.75 -26.171875 C 13.882812 -25.859375 13.171875 -25.640625 12.609375 -25.515625 C 12.421875 -23.203125 12.28125 -20.898438 12.1875 -18.609375 C 12.101562 -16.316406 12.082031 -14.015625 12.125 -11.703125 C 12.15625 -10.472656 12.207031 -9.257812 12.28125 -8.0625 C 12.363281 -6.863281 12.421875 -5.664062 12.453125 -4.46875 C 12.460938 -3.9375 12.421875 -3.347656 12.328125 -2.703125 C 12.234375 -2.054688 12.0625 -1.445312 11.8125 -0.875 C 11.570312 -0.300781 11.234375 0.179688 10.796875 0.578125 C 10.359375 0.984375 9.8125 1.191406 9.15625 1.203125 C 8.375 1.222656 7.742188 1.019531 7.265625 0.59375 C 6.796875 0.175781 6.425781 -0.34375 6.15625 -0.96875 C 5.894531 -1.59375 5.710938 -2.253906 5.609375 -2.953125 C 5.503906 -3.660156 5.445312 -4.300781 5.4375 -4.875 C 5.332031 -6.664062 5.242188 -8.46875 5.171875 -10.28125 C 5.109375 -12.09375 5.0625 -13.914062 5.03125 -15.75 C 5 -17.269531 4.972656 -18.765625 4.953125 -20.234375 C 4.941406 -21.703125 4.921875 -23.203125 4.890625 -24.734375 C 4.472656 -24.660156 4.046875 -24.601562 3.609375 -24.5625 C 3.171875 -24.519531 2.726562 -24.5 2.28125 -24.5 C 1.925781 -24.488281 1.457031 -24.515625 0.875 -24.578125 C 0.289062 -24.640625 -0.269531 -24.765625 -0.8125 -24.953125 C -1.363281 -25.140625 -1.835938 -25.398438 -2.234375 -25.734375 C -2.628906 -26.066406 -2.832031 -26.503906 -2.84375 -27.046875 C -2.863281 -27.941406 -2.523438 -28.734375 -1.828125 -29.421875 C -1.140625 -30.109375 -0.253906 -30.707031 0.828125 -31.21875 C 1.910156 -31.738281 3.113281 -32.179688 4.4375 -32.546875 C 5.757812 -32.921875 7.070312 -33.21875 8.375 -33.4375 C 9.675781 -33.664062 10.867188 -33.832031 11.953125 -33.9375 C 13.046875 -34.050781 13.894531 -34.117188 14.5 -34.140625 C 15.0625 -34.148438 15.664062 -34.132812 16.3125 -34.09375 C 16.957031 -34.0625 17.566406 -33.945312 18.140625 -33.75 C 18.710938 -33.550781 19.191406 -33.25 19.578125 -32.84375 C 19.960938 -32.4375 20.160156 -31.859375 20.171875 -31.109375 Z M 20.171875 -31.109375 "/></g></g></g><g fill="#000000" fill-opacity="1"><g transform="translate(392.391156, 221.069511)"><g><path d="M 20.921875 -7.09375 C 20.921875 -6.53125 20.769531 -5.976562 20.46875 -5.4375 C 20.164062 -4.925781 19.460938 -4.320312 18.359375 -3.625 C 17.265625 -2.9375 16.039062 -2.285156 14.6875 -1.671875 C 13.34375 -1.054688 12.039062 -0.53125 10.78125 -0.09375 C 9.519531 0.34375 8.59375 0.5625 8 0.5625 C 7.582031 0.5625 7.085938 0.460938 6.515625 0.265625 C 5.941406 0.078125 5.367188 -0.164062 4.796875 -0.46875 C 4.234375 -0.769531 3.71875 -1.109375 3.25 -1.484375 C 2.789062 -1.867188 2.457031 -2.242188 2.25 -2.609375 C 2.125 -2.816406 2.003906 -3.234375 1.890625 -3.859375 C 1.785156 -4.492188 1.695312 -5.226562 1.625 -6.0625 C 1.550781 -6.90625 1.484375 -7.796875 1.421875 -8.734375 C 1.359375 -9.679688 1.300781 -10.582031 1.25 -11.4375 C 1.207031 -12.289062 1.175781 -13.046875 1.15625 -13.703125 C 1.144531 -14.359375 1.140625 -14.835938 1.140625 -15.140625 C 1.140625 -16.242188 1.171875 -17.515625 1.234375 -18.953125 C 1.304688 -20.390625 1.445312 -21.832031 1.65625 -23.28125 C 1.863281 -24.738281 2.164062 -26.132812 2.5625 -27.46875 C 2.96875 -28.800781 3.515625 -29.9375 4.203125 -30.875 C 4.410156 -31.144531 4.828125 -31.429688 5.453125 -31.734375 C 6.085938 -32.035156 6.832031 -32.316406 7.6875 -32.578125 C 8.539062 -32.847656 9.460938 -33.101562 10.453125 -33.34375 C 11.441406 -33.59375 12.390625 -33.800781 13.296875 -33.96875 C 14.210938 -34.132812 15.046875 -34.269531 15.796875 -34.375 C 16.546875 -34.476562 17.113281 -34.53125 17.5 -34.53125 C 17.945312 -34.53125 18.375 -34.429688 18.78125 -34.234375 C 19.1875 -34.046875 19.53125 -33.785156 19.8125 -33.453125 C 20.101562 -33.128906 20.328125 -32.765625 20.484375 -32.359375 C 20.648438 -31.960938 20.734375 -31.539062 20.734375 -31.09375 C 20.734375 -30.695312 20.679688 -30.363281 20.578125 -30.09375 C 20.472656 -29.832031 20.316406 -29.535156 20.109375 -29.203125 C 19.804688 -28.816406 19.175781 -28.347656 18.21875 -27.796875 C 17.269531 -27.253906 16.234375 -26.71875 15.109375 -26.1875 C 13.992188 -25.664062 12.914062 -25.191406 11.875 -24.765625 C 10.84375 -24.347656 10.117188 -24.050781 9.703125 -23.875 C 9.578125 -23.1875 9.445312 -22.488281 9.3125 -21.78125 C 9.1875 -21.070312 9.09375 -20.359375 9.03125 -19.640625 C 9.957031 -20.117188 11.003906 -20.570312 12.171875 -21 C 13.335938 -21.425781 14.445312 -21.640625 15.5 -21.640625 C 17.625 -21.640625 18.691406 -20.59375 18.703125 -18.5 C 18.703125 -17.988281 18.601562 -17.535156 18.40625 -17.140625 C 18.21875 -16.753906 17.960938 -16.410156 17.640625 -16.109375 C 17.328125 -15.816406 16.96875 -15.554688 16.5625 -15.328125 C 16.164062 -15.097656 15.769531 -14.878906 15.375 -14.671875 C 14.414062 -14.160156 13.410156 -13.71875 12.359375 -13.34375 C 11.316406 -12.96875 10.269531 -12.597656 9.21875 -12.234375 C 9.164062 -11.992188 9.109375 -11.726562 9.046875 -11.4375 C 8.992188 -11.15625 8.96875 -10.882812 8.96875 -10.625 C 8.96875 -10.195312 9 -9.773438 9.0625 -9.359375 C 9.125 -8.941406 9.179688 -8.523438 9.234375 -8.109375 C 9.597656 -8.222656 10.175781 -8.414062 10.96875 -8.6875 C 11.757812 -8.96875 12.585938 -9.242188 13.453125 -9.515625 C 14.328125 -9.785156 15.164062 -10.015625 15.96875 -10.203125 C 16.78125 -10.398438 17.382812 -10.5 17.78125 -10.5 C 18.226562 -10.5 18.644531 -10.40625 19.03125 -10.21875 C 19.414062 -10.03125 19.742188 -9.773438 20.015625 -9.453125 C 20.285156 -9.140625 20.503906 -8.773438 20.671875 -8.359375 C 20.835938 -7.941406 20.921875 -7.519531 20.921875 -7.09375 Z M 20.921875 -7.09375 "/></g></g></g><g fill="#000000" fill-opacity="1"><g transform="translate(413.676464, 221.01339)"><g><path d="M 23.71875 -23.171875 C 23.675781 -21.109375 23.160156 -19.265625 22.171875 -17.640625 C 21.179688 -16.015625 19.882812 -14.585938 18.28125 -13.359375 C 18.738281 -12.628906 19.210938 -11.78125 19.703125 -10.8125 C 20.203125 -9.84375 20.640625 -8.820312 21.015625 -7.75 C 21.398438 -6.6875 21.707031 -5.617188 21.9375 -4.546875 C 22.175781 -3.484375 22.285156 -2.5 22.265625 -1.59375 C 22.253906 -0.632812 22.007812 0.21875 21.53125 0.96875 C 21.050781 1.726562 20.257812 2.097656 19.15625 2.078125 C 18.226562 2.054688 17.429688 1.585938 16.765625 0.671875 C 16.109375 -0.234375 15.53125 -1.3125 15.03125 -2.5625 C 14.539062 -3.820312 14.085938 -5.097656 13.671875 -6.390625 C 13.265625 -7.679688 12.875 -8.722656 12.5 -9.515625 C 11.957031 -9.347656 11.425781 -9.15625 10.90625 -8.9375 C 10.394531 -8.726562 9.867188 -8.519531 9.328125 -8.3125 C 9.285156 -7.65625 9.210938 -6.75 9.109375 -5.59375 C 9.015625 -4.445312 8.828125 -3.304688 8.546875 -2.171875 C 8.273438 -1.035156 7.878906 -0.0546875 7.359375 0.765625 C 6.835938 1.597656 6.125 2.003906 5.21875 1.984375 C 4.238281 1.972656 3.484375 1.554688 2.953125 0.734375 C 2.429688 -0.0859375 2.066406 -1.050781 1.859375 -2.15625 C 1.660156 -3.269531 1.554688 -4.40625 1.546875 -5.5625 C 1.535156 -6.71875 1.535156 -7.625 1.546875 -8.28125 C 1.578125 -9.6875 1.632812 -11.070312 1.71875 -12.4375 C 1.8125 -13.800781 1.867188 -15.1875 1.890625 -16.59375 C 1.921875 -17.875 1.925781 -19.160156 1.90625 -20.453125 C 1.882812 -21.742188 1.882812 -23.046875 1.90625 -24.359375 C 1.90625 -24.660156 1.910156 -25.039062 1.921875 -25.5 C 1.929688 -25.96875 1.960938 -26.445312 2.015625 -26.9375 C 2.078125 -27.4375 2.140625 -27.910156 2.203125 -28.359375 C 2.273438 -28.804688 2.390625 -29.164062 2.546875 -29.4375 C 2.847656 -30.050781 3.535156 -30.632812 4.609375 -31.1875 C 5.679688 -31.738281 6.859375 -32.21875 8.140625 -32.625 C 9.429688 -33.03125 10.6875 -33.347656 11.90625 -33.578125 C 13.125 -33.816406 14.03125 -33.929688 14.625 -33.921875 C 16.15625 -33.890625 17.5 -33.578125 18.65625 -32.984375 C 19.8125 -32.398438 20.769531 -31.613281 21.53125 -30.625 C 22.289062 -29.632812 22.851562 -28.492188 23.21875 -27.203125 C 23.582031 -25.921875 23.75 -24.578125 23.71875 -23.171875 Z M 15.390625 -22.71875 C 15.410156 -23.5 15.242188 -24.09375 14.890625 -24.5 C 14.535156 -24.90625 13.957031 -25.113281 13.15625 -25.125 C 12.550781 -25.144531 11.9375 -25.054688 11.3125 -24.859375 C 10.695312 -24.660156 10.140625 -24.429688 9.640625 -24.171875 C 9.710938 -21.804688 9.707031 -19.457031 9.625 -17.125 C 10.269531 -17.3125 10.921875 -17.5625 11.578125 -17.875 C 12.242188 -18.195312 12.859375 -18.59375 13.421875 -19.0625 C 13.984375 -19.53125 14.445312 -20.0625 14.8125 -20.65625 C 15.1875 -21.25 15.378906 -21.9375 15.390625 -22.71875 Z M 15.390625 -22.71875 "/></g></g></g><g fill="#000000" fill-opacity="1"><g transform="translate(436.806448, 221.431904)"><g><path d="M 26.0625 -14.65625 C 26.007812 -13.425781 25.898438 -12.160156 25.734375 -10.859375 C 25.566406 -9.566406 25.304688 -8.316406 24.953125 -7.109375 C 24.597656 -5.898438 24.132812 -4.757812 23.5625 -3.6875 C 22.988281 -2.625 22.28125 -1.695312 21.4375 -0.90625 C 20.601562 -0.113281 19.601562 0.492188 18.4375 0.921875 C 17.28125 1.359375 15.941406 1.546875 14.421875 1.484375 C 12.171875 1.378906 10.238281 0.769531 8.625 -0.34375 C 7.007812 -1.46875 5.679688 -2.867188 4.640625 -4.546875 C 3.609375 -6.222656 2.863281 -8.082031 2.40625 -10.125 C 1.957031 -12.164062 1.78125 -14.175781 1.875 -16.15625 C 1.875 -16.363281 1.878906 -16.554688 1.890625 -16.734375 C 1.898438 -16.921875 1.925781 -17.085938 1.96875 -17.234375 C 2.019531 -17.859375 2.101562 -18.707031 2.21875 -19.78125 C 2.34375 -20.851562 2.519531 -22 2.75 -23.21875 C 2.976562 -24.4375 3.265625 -25.679688 3.609375 -26.953125 C 3.953125 -28.222656 4.375 -29.359375 4.875 -30.359375 C 5.382812 -31.359375 5.984375 -32.171875 6.671875 -32.796875 C 7.367188 -33.429688 8.164062 -33.726562 9.0625 -33.6875 C 9.707031 -33.65625 10.242188 -33.4375 10.671875 -33.03125 C 11.097656 -32.632812 11.441406 -32.132812 11.703125 -31.53125 C 11.972656 -30.925781 12.148438 -30.300781 12.234375 -29.65625 C 12.328125 -29.007812 12.363281 -28.414062 12.34375 -27.875 C 12.3125 -27.0625 12.191406 -26.25 11.984375 -25.4375 C 11.785156 -24.632812 11.597656 -23.832031 11.421875 -23.03125 C 11.117188 -21.75 10.863281 -20.46875 10.65625 -19.1875 C 10.457031 -17.914062 10.328125 -16.601562 10.265625 -15.25 C 10.234375 -14.5625 10.234375 -13.722656 10.265625 -12.734375 C 10.304688 -11.742188 10.457031 -10.785156 10.71875 -9.859375 C 10.976562 -8.929688 11.367188 -8.132812 11.890625 -7.46875 C 12.421875 -6.8125 13.164062 -6.460938 14.125 -6.421875 C 15.050781 -6.378906 15.800781 -6.65625 16.375 -7.25 C 16.957031 -7.851562 17.40625 -8.582031 17.71875 -9.4375 C 18.03125 -10.289062 18.238281 -11.195312 18.34375 -12.15625 C 18.457031 -13.113281 18.53125 -13.9375 18.5625 -14.625 C 18.644531 -16.601562 18.5625 -18.5625 18.3125 -20.5 C 18.070312 -22.445312 17.722656 -24.390625 17.265625 -26.328125 C 17.140625 -26.835938 17.035156 -27.347656 16.953125 -27.859375 C 16.878906 -28.367188 16.851562 -28.878906 16.875 -29.390625 C 16.90625 -30.234375 17.179688 -30.957031 17.703125 -31.5625 C 18.222656 -32.175781 18.929688 -32.460938 19.828125 -32.421875 C 20.578125 -32.390625 21.257812 -32.066406 21.875 -31.453125 C 22.488281 -30.835938 23.03125 -30.046875 23.5 -29.078125 C 23.976562 -28.117188 24.378906 -27.050781 24.703125 -25.875 C 25.023438 -24.695312 25.296875 -23.523438 25.515625 -22.359375 C 25.742188 -21.191406 25.898438 -20.078125 25.984375 -19.015625 C 26.066406 -17.960938 26.101562 -17.109375 26.09375 -16.453125 C 26.113281 -16.148438 26.117188 -15.859375 26.109375 -15.578125 C 26.097656 -15.296875 26.082031 -14.988281 26.0625 -14.65625 Z M 26.0625 -14.65625 "/></g></g></g><g fill="#000000" fill-opacity="1"><g transform="translate(463.512096, 222.63114)"><g><path d="M 18 -30.453125 C 17.945312 -29.765625 17.6875 -29.175781 17.21875 -28.6875 C 16.757812 -28.207031 16.222656 -27.828125 15.609375 -27.546875 C 15.046875 -27.242188 14.472656 -26.925781 13.890625 -26.59375 C 13.304688 -26.257812 12.757812 -25.875 12.25 -25.4375 C 11.738281 -25.007812 11.3125 -24.519531 10.96875 -23.96875 C 10.632812 -23.425781 10.445312 -22.796875 10.40625 -22.078125 C 10.363281 -21.453125 10.476562 -20.875 10.75 -20.34375 C 11.019531 -19.8125 11.351562 -19.285156 11.75 -18.765625 C 12.15625 -18.253906 12.597656 -17.71875 13.078125 -17.15625 C 13.566406 -16.59375 14.007812 -15.976562 14.40625 -15.3125 C 14.800781 -14.644531 15.117188 -13.894531 15.359375 -13.0625 C 15.609375 -12.226562 15.695312 -11.28125 15.625 -10.21875 C 15.582031 -9.46875 15.375 -8.628906 15 -7.703125 C 14.625 -6.785156 14.140625 -5.863281 13.546875 -4.9375 C 12.953125 -4.019531 12.257812 -3.132812 11.46875 -2.28125 C 10.6875 -1.4375 9.859375 -0.6875 8.984375 -0.03125 C 8.117188 0.613281 7.222656 1.125 6.296875 1.5 C 5.367188 1.875 4.492188 2.035156 3.671875 1.984375 C 2.734375 1.929688 1.921875 1.625 1.234375 1.0625 C 0.546875 0.507812 0.234375 -0.269531 0.296875 -1.28125 C 0.335938 -1.976562 0.546875 -2.601562 0.921875 -3.15625 C 1.296875 -3.71875 1.738281 -4.25 2.25 -4.75 C 2.757812 -5.257812 3.316406 -5.75 3.921875 -6.21875 C 4.535156 -6.695312 5.097656 -7.175781 5.609375 -7.65625 C 6.117188 -8.132812 6.554688 -8.640625 6.921875 -9.171875 C 7.285156 -9.703125 7.488281 -10.28125 7.53125 -10.90625 C 7.582031 -11.769531 7.328125 -12.675781 6.765625 -13.625 C 6.210938 -14.582031 5.59375 -15.570312 4.90625 -16.59375 C 4.226562 -17.613281 3.617188 -18.648438 3.078125 -19.703125 C 2.535156 -20.753906 2.296875 -21.800781 2.359375 -22.84375 C 2.441406 -24.132812 2.867188 -25.46875 3.640625 -26.84375 C 4.421875 -28.21875 5.382812 -29.460938 6.53125 -30.578125 C 7.675781 -31.691406 8.945312 -32.59375 10.34375 -33.28125 C 11.75 -33.976562 13.101562 -34.285156 14.40625 -34.203125 C 15.457031 -34.128906 16.332031 -33.753906 17.03125 -33.078125 C 17.738281 -32.410156 18.0625 -31.535156 18 -30.453125 Z M 18 -30.453125 "/></g></g></g><g fill="#000000" fill-opacity="1"><g transform="translate(479.546389, 223.663547)"><g/></g></g><g fill="#000000" fill-opacity="1"><g transform="translate(490.087663, 224.400834)"><g><path d="M 24.546875 -4.390625 C 24.484375 -3.785156 24.359375 -3.070312 24.171875 -2.25 C 23.992188 -1.425781 23.722656 -0.648438 23.359375 0.078125 C 23.003906 0.816406 22.546875 1.421875 21.984375 1.890625 C 21.421875 2.367188 20.71875 2.566406 19.875 2.484375 C 18.78125 2.378906 17.992188 1.898438 17.515625 1.046875 C 17.046875 0.203125 16.742188 -0.789062 16.609375 -1.9375 C 16.484375 -3.09375 16.453125 -4.253906 16.515625 -5.421875 C 16.578125 -6.585938 16.625 -7.507812 16.65625 -8.1875 C 14.46875 -8.03125 12.316406 -7.921875 10.203125 -7.859375 C 10.078125 -7.171875 9.875 -6.328125 9.59375 -5.328125 C 9.3125 -4.335938 8.921875 -3.390625 8.421875 -2.484375 C 7.929688 -1.578125 7.332031 -0.8125 6.625 -0.1875 C 5.914062 0.425781 5.101562 0.691406 4.1875 0.609375 C 3.46875 0.546875 2.929688 0.238281 2.578125 -0.3125 C 2.222656 -0.875 1.972656 -1.519531 1.828125 -2.25 C 1.691406 -2.988281 1.640625 -3.738281 1.671875 -4.5 C 1.703125 -5.269531 1.738281 -5.910156 1.78125 -6.421875 C 1.9375 -8.117188 2.222656 -9.78125 2.640625 -11.40625 C 3.066406 -13.039062 3.535156 -14.660156 4.046875 -16.265625 C 4.296875 -17.109375 4.625 -18.097656 5.03125 -19.234375 C 5.445312 -20.378906 5.925781 -21.546875 6.46875 -22.734375 C 7.019531 -23.929688 7.640625 -25.109375 8.328125 -26.265625 C 9.023438 -27.421875 9.789062 -28.441406 10.625 -29.328125 C 11.457031 -30.210938 12.378906 -30.90625 13.390625 -31.40625 C 14.410156 -31.914062 15.5 -32.117188 16.65625 -32.015625 C 17.789062 -31.910156 18.75 -31.5625 19.53125 -30.96875 C 20.320312 -30.382812 20.992188 -29.644531 21.546875 -28.75 C 22.097656 -27.863281 22.53125 -26.867188 22.84375 -25.765625 C 23.164062 -24.671875 23.414062 -23.566406 23.59375 -22.453125 C 23.769531 -21.335938 23.910156 -20.25 24.015625 -19.1875 C 24.117188 -18.125 24.203125 -17.179688 24.265625 -16.359375 C 24.472656 -14.398438 24.613281 -12.410156 24.6875 -10.390625 C 24.769531 -8.378906 24.722656 -6.378906 24.546875 -4.390625 Z M 16.9375 -16.0625 C 16.96875 -16.425781 17 -17.015625 17.03125 -17.828125 C 17.0625 -18.648438 17.039062 -19.476562 16.96875 -20.3125 C 16.894531 -21.15625 16.734375 -21.910156 16.484375 -22.578125 C 16.234375 -23.253906 15.835938 -23.613281 15.296875 -23.65625 C 14.992188 -23.6875 14.6875 -23.507812 14.375 -23.125 C 14.070312 -22.75 13.785156 -22.265625 13.515625 -21.671875 C 13.253906 -21.085938 13.003906 -20.429688 12.765625 -19.703125 C 12.535156 -18.972656 12.328125 -18.269531 12.140625 -17.59375 C 11.960938 -16.914062 11.816406 -16.304688 11.703125 -15.765625 C 11.597656 -15.222656 11.519531 -14.832031 11.46875 -14.59375 C 13.269531 -14.570312 15.050781 -14.628906 16.8125 -14.765625 Z M 16.9375 -16.0625 "/></g></g></g><g fill="#000000" fill-opacity="1"><g transform="translate(515.242495, 226.767739)"><g><path d="M 24.125 -23.9375 C 23.882812 -21.882812 23.160156 -20.070312 21.953125 -18.5 C 20.742188 -16.9375 19.226562 -15.691406 17.40625 -14.765625 C 18.28125 -14.472656 19.015625 -14.078125 19.609375 -13.578125 C 20.210938 -13.078125 20.691406 -12.484375 21.046875 -11.796875 C 21.410156 -11.117188 21.660156 -10.375 21.796875 -9.5625 C 21.929688 -8.75 21.945312 -7.914062 21.84375 -7.0625 C 21.644531 -5.363281 21.078125 -3.925781 20.140625 -2.75 C 19.210938 -1.570312 18.078125 -0.648438 16.734375 0.015625 C 15.390625 0.691406 13.925781 1.144531 12.34375 1.375 C 10.769531 1.601562 9.222656 1.628906 7.703125 1.453125 C 6.867188 1.347656 6.039062 1.1875 5.21875 0.96875 C 4.40625 0.757812 3.644531 0.460938 2.9375 0.078125 C 2.675781 -0.046875 2.492188 -0.4375 2.390625 -1.09375 C 2.285156 -1.757812 2.234375 -2.5625 2.234375 -3.5 C 2.234375 -4.4375 2.265625 -5.441406 2.328125 -6.515625 C 2.398438 -7.585938 2.476562 -8.617188 2.5625 -9.609375 C 2.644531 -10.597656 2.726562 -11.460938 2.8125 -12.203125 C 2.894531 -12.941406 2.953125 -13.460938 2.984375 -13.765625 C 3.109375 -14.804688 3.226562 -15.851562 3.34375 -16.90625 C 3.46875 -17.96875 3.625 -19.007812 3.8125 -20.03125 C 3.84375 -20.300781 3.898438 -20.71875 3.984375 -21.28125 C 4.066406 -21.851562 4.15625 -22.488281 4.25 -23.1875 C 4.34375 -23.882812 4.453125 -24.613281 4.578125 -25.375 C 4.710938 -26.144531 4.859375 -26.863281 5.015625 -27.53125 C 5.171875 -28.195312 5.34375 -28.757812 5.53125 -29.21875 C 5.726562 -29.675781 5.921875 -29.953125 6.109375 -30.046875 C 6.835938 -30.410156 7.640625 -30.742188 8.515625 -31.046875 C 9.398438 -31.359375 10.304688 -31.609375 11.234375 -31.796875 C 12.160156 -31.992188 13.082031 -32.128906 14 -32.203125 C 14.914062 -32.285156 15.78125 -32.28125 16.59375 -32.1875 C 17.6875 -32.0625 18.726562 -31.78125 19.71875 -31.34375 C 20.707031 -30.90625 21.546875 -30.332031 22.234375 -29.625 C 22.921875 -28.914062 23.441406 -28.078125 23.796875 -27.109375 C 24.148438 -26.148438 24.257812 -25.09375 24.125 -23.9375 Z M 16.4375 -22.4375 C 16.5 -22.9375 16.382812 -23.320312 16.09375 -23.59375 C 15.8125 -23.875 15.421875 -24.039062 14.921875 -24.09375 C 14.492188 -24.144531 14.039062 -24.101562 13.5625 -23.96875 C 13.082031 -23.84375 12.664062 -23.648438 12.3125 -23.390625 C 12.207031 -23.328125 12.09375 -23.085938 11.96875 -22.671875 C 11.851562 -22.253906 11.738281 -21.789062 11.625 -21.28125 C 11.519531 -20.769531 11.429688 -20.285156 11.359375 -19.828125 C 11.296875 -19.367188 11.253906 -19.0625 11.234375 -18.90625 C 11.222656 -18.84375 11.207031 -18.75 11.1875 -18.625 C 11.175781 -18.5 11.171875 -18.359375 11.171875 -18.203125 C 11.171875 -18.046875 11.175781 -17.90625 11.1875 -17.78125 C 11.207031 -17.664062 11.242188 -17.601562 11.296875 -17.59375 C 11.804688 -17.53125 12.351562 -17.65625 12.9375 -17.96875 C 13.519531 -18.289062 14.054688 -18.695312 14.546875 -19.1875 C 15.035156 -19.6875 15.457031 -20.234375 15.8125 -20.828125 C 16.175781 -21.421875 16.382812 -21.957031 16.4375 -22.4375 Z M 14.75 -9.546875 C 14.8125 -10.054688 14.675781 -10.4375 14.34375 -10.6875 C 14.019531 -10.9375 13.632812 -11.085938 13.1875 -11.140625 C 12.769531 -11.191406 12.316406 -11.144531 11.828125 -11 C 11.347656 -10.863281 10.941406 -10.675781 10.609375 -10.4375 C 10.515625 -10.382812 10.429688 -10.238281 10.359375 -10 C 10.285156 -9.769531 10.222656 -9.515625 10.171875 -9.234375 C 10.128906 -8.953125 10.085938 -8.6875 10.046875 -8.4375 C 10.003906 -8.195312 9.976562 -8.03125 9.96875 -7.9375 C 9.957031 -7.875 9.941406 -7.753906 9.921875 -7.578125 C 9.898438 -7.398438 9.882812 -7.210938 9.875 -7.015625 C 9.875 -6.816406 9.882812 -6.632812 9.90625 -6.46875 C 9.9375 -6.300781 9.976562 -6.21875 10.03125 -6.21875 C 10.457031 -6.164062 10.929688 -6.226562 11.453125 -6.40625 C 11.984375 -6.59375 12.488281 -6.835938 12.96875 -7.140625 C 13.445312 -7.441406 13.851562 -7.804688 14.1875 -8.234375 C 14.519531 -8.671875 14.707031 -9.109375 14.75 -9.546875 Z M 14.75 -9.546875 "/></g></g></g><g fill="#000000" fill-opacity="1"><g transform="translate(536.640109, 229.224763)"><g><path d="M 24.71875 -3.296875 C 24.632812 -2.703125 24.484375 -1.992188 24.265625 -1.171875 C 24.046875 -0.359375 23.734375 0.40625 23.328125 1.125 C 22.929688 1.851562 22.445312 2.4375 21.875 2.875 C 21.300781 3.320312 20.597656 3.488281 19.765625 3.375 C 18.671875 3.21875 17.90625 2.703125 17.46875 1.828125 C 17.03125 0.953125 16.765625 -0.0546875 16.671875 -1.203125 C 16.585938 -2.347656 16.601562 -3.503906 16.71875 -4.671875 C 16.832031 -5.835938 16.921875 -6.757812 16.984375 -7.4375 C 14.804688 -7.375 12.660156 -7.359375 10.546875 -7.390625 C 10.390625 -6.710938 10.144531 -5.878906 9.8125 -4.890625 C 9.488281 -3.910156 9.054688 -2.984375 8.515625 -2.109375 C 7.984375 -1.234375 7.351562 -0.5 6.625 0.09375 C 5.894531 0.6875 5.066406 0.921875 4.140625 0.796875 C 3.429688 0.703125 2.914062 0.367188 2.59375 -0.203125 C 2.269531 -0.773438 2.050781 -1.429688 1.9375 -2.171875 C 1.820312 -2.921875 1.796875 -3.675781 1.859375 -4.4375 C 1.921875 -5.195312 1.988281 -5.832031 2.0625 -6.34375 C 2.289062 -8.03125 2.65625 -9.675781 3.15625 -11.28125 C 3.65625 -12.894531 4.191406 -14.492188 4.765625 -16.078125 C 5.054688 -16.910156 5.429688 -17.882812 5.890625 -19 C 6.359375 -20.125 6.890625 -21.269531 7.484375 -22.4375 C 8.085938 -23.601562 8.757812 -24.75 9.5 -25.875 C 10.25 -27 11.0625 -27.984375 11.9375 -28.828125 C 12.8125 -29.671875 13.765625 -30.320312 14.796875 -30.78125 C 15.828125 -31.25 16.921875 -31.398438 18.078125 -31.234375 C 19.203125 -31.078125 20.140625 -30.6875 20.890625 -30.0625 C 21.648438 -29.445312 22.285156 -28.679688 22.796875 -27.765625 C 23.304688 -26.847656 23.695312 -25.832031 23.96875 -24.71875 C 24.238281 -23.613281 24.4375 -22.5 24.5625 -21.375 C 24.695312 -20.25 24.789062 -19.15625 24.84375 -18.09375 C 24.894531 -17.03125 24.9375 -16.085938 24.96875 -15.265625 C 25.082031 -13.285156 25.132812 -11.289062 25.125 -9.28125 C 25.125 -7.269531 24.988281 -5.273438 24.71875 -3.296875 Z M 17.625 -15.28125 C 17.675781 -15.644531 17.738281 -16.238281 17.8125 -17.0625 C 17.882812 -17.882812 17.898438 -18.710938 17.859375 -19.546875 C 17.828125 -20.378906 17.703125 -21.132812 17.484375 -21.8125 C 17.265625 -22.5 16.882812 -22.878906 16.34375 -22.953125 C 16.039062 -22.992188 15.726562 -22.832031 15.40625 -22.46875 C 15.082031 -22.113281 14.773438 -21.644531 14.484375 -21.0625 C 14.191406 -20.476562 13.910156 -19.820312 13.640625 -19.09375 C 13.378906 -18.375 13.140625 -17.679688 12.921875 -17.015625 C 12.710938 -16.359375 12.539062 -15.757812 12.40625 -15.21875 C 12.269531 -14.675781 12.171875 -14.296875 12.109375 -14.078125 C 13.910156 -13.960938 15.691406 -13.9375 17.453125 -14 Z M 17.625 -15.28125 "/></g></g></g><g fill="#000000" fill-opacity="1"><g transform="translate(561.644178, 232.689777)"><g><path d="M 27.421875 -16.015625 C 27.003906 -13.410156 26.0625 -10.988281 24.59375 -8.75 C 23.132812 -6.519531 21.359375 -4.617188 19.265625 -3.046875 C 17.179688 -1.472656 14.859375 -0.328125 12.296875 0.390625 C 9.734375 1.109375 7.132812 1.253906 4.5 0.828125 L 4.421875 0.8125 C 3.890625 0.726562 3.492188 0.414062 3.234375 -0.125 C 2.972656 -0.675781 2.78125 -1.335938 2.65625 -2.109375 C 2.539062 -2.890625 2.5 -3.75 2.53125 -4.6875 C 2.570312 -5.625 2.628906 -6.53125 2.703125 -7.40625 C 2.785156 -8.289062 2.882812 -9.082031 3 -9.78125 C 3.113281 -10.476562 3.203125 -11 3.265625 -11.34375 C 3.421875 -12.351562 3.597656 -13.347656 3.796875 -14.328125 C 3.992188 -15.316406 4.203125 -16.3125 4.421875 -17.3125 C 4.472656 -17.632812 4.570312 -18.109375 4.71875 -18.734375 C 4.863281 -19.359375 5.03125 -20.066406 5.21875 -20.859375 C 5.40625 -21.648438 5.613281 -22.472656 5.84375 -23.328125 C 6.082031 -24.191406 6.3125 -24.988281 6.53125 -25.71875 C 6.757812 -26.457031 6.972656 -27.101562 7.171875 -27.65625 C 7.367188 -28.21875 7.554688 -28.59375 7.734375 -28.78125 C 8.234375 -29.363281 8.921875 -29.84375 9.796875 -30.21875 C 10.671875 -30.59375 11.597656 -30.863281 12.578125 -31.03125 C 13.566406 -31.207031 14.550781 -31.296875 15.53125 -31.296875 C 16.519531 -31.304688 17.367188 -31.253906 18.078125 -31.140625 C 20.035156 -30.816406 21.671875 -30.175781 22.984375 -29.21875 C 24.304688 -28.269531 25.347656 -27.101562 26.109375 -25.71875 C 26.867188 -24.332031 27.347656 -22.800781 27.546875 -21.125 C 27.742188 -19.457031 27.703125 -17.753906 27.421875 -16.015625 Z M 19.765625 -15.9375 C 19.867188 -16.59375 19.851562 -17.28125 19.71875 -18 C 19.59375 -18.71875 19.363281 -19.390625 19.03125 -20.015625 C 18.707031 -20.640625 18.265625 -21.171875 17.703125 -21.609375 C 17.148438 -22.046875 16.503906 -22.328125 15.765625 -22.453125 C 15.140625 -22.554688 14.484375 -22.519531 13.796875 -22.34375 C 13.628906 -22.269531 13.445312 -22.015625 13.25 -21.578125 C 13.0625 -21.140625 12.875 -20.597656 12.6875 -19.953125 C 12.507812 -19.316406 12.328125 -18.617188 12.140625 -17.859375 C 11.960938 -17.109375 11.804688 -16.382812 11.671875 -15.6875 C 11.546875 -14.988281 11.429688 -14.375 11.328125 -13.84375 C 11.234375 -13.320312 11.175781 -12.972656 11.15625 -12.796875 C 11.101562 -12.492188 11.03125 -12.054688 10.9375 -11.484375 C 10.84375 -10.910156 10.769531 -10.335938 10.71875 -9.765625 C 10.664062 -9.203125 10.632812 -8.707031 10.625 -8.28125 C 10.613281 -7.851562 10.6875 -7.625 10.84375 -7.59375 C 11.726562 -7.445312 12.664062 -7.648438 13.65625 -8.203125 C 14.644531 -8.765625 15.578125 -9.488281 16.453125 -10.375 C 17.328125 -11.269531 18.066406 -12.226562 18.671875 -13.25 C 19.273438 -14.28125 19.640625 -15.175781 19.765625 -15.9375 Z M 19.765625 -15.9375 "/></g></g></g><g fill="#000000" fill-opacity="1"><g transform="translate(586.173556, 236.731161)"><g><path d="M 22.09375 -26.953125 C 22 -26.398438 21.785156 -25.921875 21.453125 -25.515625 C 21.117188 -25.117188 20.71875 -24.804688 20.25 -24.578125 C 19.78125 -24.347656 19.273438 -24.175781 18.734375 -24.0625 C 18.203125 -23.945312 17.691406 -23.890625 17.203125 -23.890625 C 16.535156 -20.566406 15.820312 -17.375 15.0625 -14.3125 C 14.300781 -11.25 13.414062 -8.109375 12.40625 -4.890625 L 12.671875 -4.84375 C 13.140625 -4.757812 13.59375 -4.625 14.03125 -4.4375 C 14.476562 -4.25 14.859375 -3.992188 15.171875 -3.671875 C 15.492188 -3.359375 15.734375 -3 15.890625 -2.59375 C 16.046875 -2.1875 16.078125 -1.71875 15.984375 -1.1875 C 15.859375 -0.507812 15.535156 0.0390625 15.015625 0.46875 C 14.492188 0.894531 13.851562 1.21875 13.09375 1.4375 C 12.332031 1.65625 11.503906 1.804688 10.609375 1.890625 C 9.710938 1.972656 8.828125 2 7.953125 1.96875 C 7.078125 1.945312 6.25 1.894531 5.46875 1.8125 C 4.6875 1.738281 4.0625 1.660156 3.59375 1.578125 C 3.25 1.515625 2.816406 1.421875 2.296875 1.296875 C 1.785156 1.171875 1.316406 0.992188 0.890625 0.765625 C 0.460938 0.535156 0.113281 0.242188 -0.15625 -0.109375 C -0.425781 -0.472656 -0.515625 -0.90625 -0.421875 -1.40625 C -0.304688 -2.03125 -0.0820312 -2.5625 0.25 -3 C 0.59375 -3.4375 1.003906 -3.804688 1.484375 -4.109375 C 1.960938 -4.421875 2.484375 -4.644531 3.046875 -4.78125 C 3.609375 -4.914062 4.164062 -5 4.71875 -5.03125 C 5.21875 -6.601562 5.703125 -8.175781 6.171875 -9.75 C 6.640625 -11.320312 7.054688 -12.929688 7.421875 -14.578125 C 7.785156 -16.242188 8.144531 -17.890625 8.5 -19.515625 C 8.863281 -21.140625 9.226562 -22.769531 9.59375 -24.40625 C 9.375 -24.425781 9.175781 -24.441406 9 -24.453125 C 8.820312 -24.472656 8.660156 -24.492188 8.515625 -24.515625 C 8.109375 -24.597656 7.675781 -24.722656 7.21875 -24.890625 C 6.757812 -25.066406 6.335938 -25.300781 5.953125 -25.59375 C 5.578125 -25.894531 5.28125 -26.234375 5.0625 -26.609375 C 4.851562 -26.984375 4.796875 -27.421875 4.890625 -27.921875 C 5.066406 -28.929688 5.632812 -29.679688 6.59375 -30.171875 C 7.5625 -30.660156 8.65625 -30.972656 9.875 -31.109375 C 11.101562 -31.253906 12.332031 -31.28125 13.5625 -31.1875 C 14.789062 -31.101562 15.773438 -30.992188 16.515625 -30.859375 C 16.929688 -30.773438 17.472656 -30.644531 18.140625 -30.46875 C 18.804688 -30.289062 19.453125 -30.035156 20.078125 -29.703125 C 20.703125 -29.378906 21.222656 -28.992188 21.640625 -28.546875 C 22.054688 -28.109375 22.207031 -27.578125 22.09375 -26.953125 Z M 22.09375 -26.953125 "/></g></g></g></svg>